<svg width="577" height="178" viewBox="0 0 577 178" fill="none" xmlns="http://www.w3.org/2000/svg">
<path opacity="0.2" d="M269.119 325.084C267.624 330.93 266.103 336.759 264.625 342.605C263.631 346.489 263.666 350.565 264.726 354.431C265.571 351.897 266.779 349.363 267.261 346.744C269.417 335.819 273.579 325.387 279.535 315.978C283.451 309.944 288.67 304.863 294.808 301.111C296.185 300.266 297.773 300.376 299.302 300.224C301.566 299.996 301.566 299.97 302.596 297.411C298.085 290.467 294.512 291.43 289.08 293.888C287.295 294.718 285.58 295.693 283.953 296.802C283.531 297.137 283.021 297.344 282.485 297.398C281.949 297.452 281.409 297.351 280.929 297.107C280.151 297.664 280.709 298.796 279.501 299.514L276.561 299.793C273.765 302.715 272.337 306.762 268.376 309.584C268.624 308.198 269.253 306.908 270.192 305.858C272.29 303.045 273.911 299.906 274.99 296.566C276.485 291.734 279.999 288.076 283.53 284.697C287.556 280.953 290.52 276.212 292.121 270.953C295.01 261.484 300.307 253.796 309.016 248.626C311.142 247.243 313.095 245.612 314.837 243.769C322.693 236.107 331.994 231.427 342.713 228.826C356.356 225.506 370.1 222.6 383.574 218.511C390.052 216.49 396.98 216.414 403.501 218.291C406.796 219.254 410.479 218.807 413.968 219.136C423.201 220.023 432.316 221.671 441.473 223.14C447.981 224.068 454.41 225.48 460.708 227.364C467.567 229.527 474.815 229.29 482.097 227.676C476.893 232.956 472.864 239.579 464.974 241.42C459.888 242.545 454.978 244.352 450.377 246.793C449.273 247.414 448.048 247.788 446.786 247.891C442.148 247.964 437.634 249.404 433.811 252.031C429.951 249.243 426.69 246.21 425.127 241.665C424.282 239.266 423.488 236.876 422.694 234.477C422.23 233.075 421.799 231.689 419.873 232.196C419.771 230.794 420.43 229.712 419.932 228.606C419.611 227.894 419.087 227.294 418.426 226.881C417.764 226.467 416.995 226.259 416.215 226.283C414.392 226.225 412.568 226.265 410.749 226.401C409.339 226.477 407.903 226.68 406.619 225.937C401.846 223.166 397.326 224.382 393.871 227.846C389.69 232.069 384.689 235.203 380.414 239.241C374.907 244.42 370.092 249.944 369.095 257.927C368.791 260.394 367.625 262.751 366.856 265.15L366.924 265.073C363.575 266.129 360.164 266.975 356.711 267.608C354.893 267.891 353.184 268.655 351.761 269.821C347.368 273.31 342.308 274.602 336.809 274.585C326.413 274.585 316.019 274.304 305.629 273.741C302.461 273.572 299.716 274.265 297.9 277.01C294.681 281.817 290.136 285.01 285.296 287.333C284.105 289.867 284.063 292.232 283.243 295.569C290.744 290.424 297.536 288.422 304.429 295.949C304.877 296.684 303.787 298.373 304.902 300.13C307.141 301.11 308.831 303.56 311.5 304.591C312.078 304.759 312.668 304.88 313.266 304.954C314.212 302.167 313.468 299.573 312.911 297.03C312.353 294.488 311.542 291.962 310.782 289.293C312.894 289.234 313.646 290.906 314.837 291.497C316.095 291.725 315.986 290.272 316.881 290.129C319.077 290.914 318.444 293.626 320.023 294.851C321.35 294.851 320.023 293.212 321.392 293.094C323.259 294.724 323.081 297.858 325.202 299.624C326.275 297.875 324.467 296.245 325.286 294.606C329.806 297.909 331.656 301.009 337.957 315.852C335.727 315.556 333.573 314.415 331.698 316.257C329.674 313.945 326.967 312.335 323.968 311.662C321.753 311.134 319.804 309.819 318.486 307.961C317.574 306.694 316.636 305.9 314.566 306.948C319.888 315.505 324.779 324.231 326.883 333.98C328.927 343.517 333.32 352.564 333.218 362.701C331.681 362.642 331.749 361.578 331.715 360.902C331.546 356.484 330.025 352.37 328.961 348.154C327.835 343.812 326.779 339.451 325.793 335.07C323.715 325.777 319.229 317.482 314.499 309.313C313.751 307.949 312.558 306.882 311.12 306.289C310.077 305.869 309.101 305.3 308.222 304.599C303.906 301.06 298.702 300.849 293.938 303.603C286.977 307.615 283.623 314.508 279.256 320.844C281.165 325.87 278.361 330.136 277.153 334.706C276.301 337.673 275.245 340.577 273.993 343.399C272.599 346.685 272.802 350.156 273.368 353.383C275.767 367.22 280.067 380.348 289.131 391.473C293.127 396.373 296.387 401.779 300.037 406.958C295.762 409.162 289.275 407.042 286.681 402.396C284.215 397.986 282.061 393.383 280.008 388.762C279.087 386.675 278.183 384.538 276.544 383.051C273.85 380.576 272.878 376.825 269.702 374.055C269.415 376.547 269.702 378.557 270.868 380.019C276.984 387.562 279.83 396.837 284.451 405.167C284.857 405.893 285.389 406.552 285.904 407.304C289.376 408.377 292.797 409.5 296.531 409.576C298.086 409.56 299.622 409.92 301.008 410.626C302.393 411.332 303.588 412.363 304.489 413.631C312.193 412.879 316.391 406.949 321.113 402.117C329.045 402.117 334.899 395.537 343.457 395.275C339.385 401.34 333.497 402.734 327.187 404.744C333.193 408.377 338.456 412.017 345.231 412.499C345.712 410.1 343.094 408.732 344.386 406.256C346.194 407.997 346.413 410.556 348.356 411.781C350.299 413.006 352.073 414.172 354.523 415.751C348.998 419.13 343.676 418.438 338.371 417.441C332.712 416.41 329.696 410.995 324.855 408.774C323.816 409.619 324.129 410.463 324.332 411.249C326.021 417.669 327.111 424.106 325.05 430.678C324.391 432.773 325.81 434.741 325.438 436.912C324.839 440.443 323.25 443.552 321.966 446.703C320.801 447.598 320.192 445.917 319.12 446.306C318.922 446.633 318.776 446.989 318.689 447.362C318.052 453.936 317.99 460.553 318.503 467.137C319.466 478.068 319.111 489.101 319.001 500.023C318.824 517.189 319.626 534.329 319.846 551.485C319.846 552.955 319.702 554.543 320.936 555.709C322.287 555.388 322.482 554.315 322.853 553.454C327.001 543.612 331.436 533.889 335.043 523.828C335.415 522.769 335.893 521.75 336.471 520.787C347.309 502.735 359.397 485.468 369.543 466.994C374.358 458.217 377.694 448.831 380.812 439.353C381.023 438.703 381.09 438.002 381.276 437.098C379.046 436.321 377.39 437.52 375.726 438.331C372.82 439.742 369.999 441.322 367.084 442.732C365.496 443.493 363.807 444.49 361.619 442.53C366.779 436.963 372.313 431.755 378.184 426.944C376.723 424.359 374.805 422.881 371.806 422.856C371.39 422.923 370.963 422.884 370.564 422.744C370.166 422.604 369.809 422.366 369.526 422.053L369.467 422.121H375.38C376.918 422.808 378.176 424 378.945 425.5C382.214 431.354 387.561 434.978 392.706 438.897C397.115 442.276 401.854 445.36 404.929 449.744C404.6 453.343 402.581 455.319 400.629 457.347C398.678 459.374 396.769 461.351 395.662 464.062C394.649 466.546 393.804 469.291 390.856 470.77C391.582 464.4 392.942 458.099 392.097 451.45C389.065 452.337 388.33 455.285 386.362 456.882C384.303 458.457 382.027 459.723 379.604 460.641C376.664 465.642 373.597 470.677 370.708 475.847C367.792 481.14 364.571 486.259 361.061 491.179C351.727 503.994 344.969 518.211 338.912 532.757C335.297 541.458 330.963 549.838 327.778 558.725C327.061 560.409 326.638 562.203 326.528 564.03C330.057 558.618 334.516 553.873 339.698 550.015C341.97 548.326 344.386 546.814 347.233 548.968C347.233 551.19 345.543 551.941 344.192 552.778C338.447 556.224 334.604 561.293 331.732 567.189C331.039 568.617 329.89 570.045 330.608 572.072C333.142 571.903 334.257 570.028 335.449 568.439C339.757 562.712 343.896 556.866 348.213 551.139C351.858 546.145 356.089 541.608 360.816 537.623C362.762 535.994 364.962 534.695 367.329 533.78C369.315 533.036 370.92 533.365 371.84 535.689C371.301 538.438 369.702 540.866 367.388 542.446C359.515 548.36 353.357 555.743 348.052 563.937C346.564 566.173 344.77 568.189 342.722 569.926C343.303 570.113 343.925 570.139 344.52 570C345.115 569.862 345.661 569.565 346.101 569.141C350.096 566.295 354.337 563.81 358.772 561.715C361.965 560.144 363.9 557.939 364.035 554.29C364.117 553.672 364.279 553.067 364.516 552.491C365.489 551.16 366.892 550.205 368.487 549.787C372.051 548.782 374.138 546.409 375.523 543.089C377.382 538.671 379.223 534.253 379.384 529.378C379.468 526.844 380.786 524.868 381.791 522.865C381.977 521.742 380.989 520.914 381.496 519.613C381.676 519.183 381.93 518.789 382.248 518.448C388.494 513.191 395.53 508.952 403.096 505.886C404.984 505.09 407.038 504.767 409.08 504.943C411.121 505.12 413.089 505.791 414.813 506.899C416.304 507.89 417.906 508.704 419.585 509.324C419.027 511.585 417.993 513.702 416.553 515.533C417.338 517.518 419.087 517.459 420.295 518.718C419.704 521.134 420.988 523.93 419.754 526.32C417.744 527.934 416.375 526.084 414.255 525.966C410.682 527.241 409.06 530.586 407.869 534.498C412.093 530.781 418.124 530.443 422.229 526.658C422.923 525.246 423.328 523.709 423.421 522.139C423.421 520.787 421.892 520.094 421.968 518.76C422.107 518.314 422.365 517.914 422.713 517.602C423.06 517.289 423.486 517.077 423.944 516.986C424.939 518.784 426.597 520.121 428.565 520.711C431.336 521.725 432.637 524.031 432.628 527.005C432.628 534.81 431.074 542.109 425.389 547.954C423.943 549.303 422.737 550.889 421.824 552.643C418.817 559.215 413.224 562.391 406.703 564.41C405.877 564.59 405.076 564.874 404.321 565.255C398.991 568.532 393.179 568.372 387.291 567.721C386.602 567.706 385.914 567.737 385.23 567.815C381.082 563.396 376.41 559.781 370.294 564.849L366.915 563.878C363.752 565.422 360.448 566.658 357.049 567.57C348.897 570.104 342.477 575.307 336.547 581.212C335.913 581.854 335.077 582.555 335.55 584.084C341.818 581.846 348.424 581.913 354.92 581.178C355.604 581.017 356.304 580.93 357.007 580.916C368.098 582.006 379.071 579.227 390.205 580.173C394.643 580.599 399.122 580.125 403.373 578.781C407.624 577.437 411.561 575.25 414.948 572.35C422.044 566.294 430.407 564.013 439.15 562.332C449.25 560.519 459.523 559.861 469.772 560.372C472.379 560.401 474.964 560.855 477.425 561.715C477.746 563.405 479.563 564.722 479.03 566.843C482.409 568.237 486.346 567.417 489.463 569.597C490.544 570.636 489.277 571.869 490.147 573.44C492.361 575.442 496.542 574.969 498.519 577.445C499.862 578.847 499.271 580.291 499.608 580.967C504.736 585.715 509.154 590.529 514.18 593.925C514.713 595.463 513.403 595.742 513.42 596.848C515.355 598.622 517.255 600.675 519.392 601.875C520.727 603.285 518.995 604.189 519.578 605.752C526.057 609.976 527.662 617.688 530.56 624.497C532.558 628.974 535.342 633.056 538.779 636.551C540.418 638.3 542.201 639.888 543.071 642.161C543.071 643.605 541.381 643.614 540.9 645.253C545.039 650.008 550.885 652.965 555.455 656.099C559.678 662.857 560.633 669.911 563.26 676.373C565.887 682.835 566.301 689.475 566.876 696.165C567.21 700.245 568.986 704.072 571.885 706.961C574.276 709.495 576.337 712.401 576.371 716.414C574.352 718.779 573.363 721.896 571.581 724.49C561.765 726.661 551.645 723.324 541.077 726.644C538.543 726.737 535.595 723.687 531.878 724.955L527.992 722.902C526.48 722.834 526.302 724.591 524.976 724.523C523.092 724.414 521.597 723.265 519.705 722.31C515.262 724.295 511.173 719.666 506.975 720.959C505.564 721.5 506.13 722.851 505.116 723.138C503.9 723.391 503.216 722.125 501.83 721.964C499.913 723.071 497.725 722.809 495.554 721.964C491.144 720.275 486.346 719.531 482.671 716.186C482.069 715.602 481.295 715.226 480.464 715.114C479.632 715.001 478.786 715.158 478.05 715.561C472.399 711.928 468.843 706.21 462.98 702.501C460.995 703.236 459.221 702.256 457.396 700.685C451.62 695.751 446.463 690.134 442.039 683.959C440.873 682.32 439.952 680.191 437.148 681.104C430.086 672.656 423.176 664.133 419.754 653.413C419.074 651.412 418.112 649.518 416.899 647.787C410.386 638.106 406.196 627.411 402.817 616.337C400.798 609.714 398.365 603.37 393.381 598.2C390.585 595.302 390.847 593.267 393.381 589.947C394.809 588.063 396.397 586.289 397.935 584.448C395.122 583.003 362.143 583.366 354.641 584.904C354.134 587.294 352.031 588.224 349.868 589.254C340.213 593.883 330.87 598.935 323.124 606.605C315.326 614.378 309.564 623.953 306.347 634.482C305.587 636.881 304.59 639.187 303.424 642.253C308.349 642.152 311.796 639.086 315.952 638.444C320.108 637.802 323.825 634.989 327.778 634.017C329.544 635.707 328.623 637.033 328.201 638.308C326.824 642.27 324.197 645.396 321.198 648.184C318.945 650.305 316.542 652.261 314.009 654.038C308.797 657.628 304.345 661.75 302.571 668.12C302.257 669.048 301.77 669.908 301.135 670.654C297.207 675.68 293.22 680.681 288.971 685.471C290.63 680.311 293.678 675.708 297.781 672.166C293.008 671.93 290.381 674.81 288.683 678.417C280.81 695.143 275.573 712.798 270.944 730.648C269.617 735.818 268.536 741.081 266.517 746.014C262.767 755.154 261.491 765.164 257.436 774.043C252.782 784.256 250.011 794.958 246.792 805.552C243.574 816.145 241.031 826.671 237.644 837.129C236.165 841.665 233.944 845.947 232.778 850.889C231.24 851.185 230.244 852.402 229.602 854.556C228.292 852.081 229.602 850.425 229.069 848.727C227.98 848.727 228.225 850.416 226.822 850.34C225.547 848.845 225.978 847.038 226.611 845.382C228.47 840.415 228.554 835.245 228.858 830.058C229.416 820.614 231.088 811.347 237.382 803.668C237.771 803.259 238.081 802.78 238.294 802.257C241.361 792.348 247.468 783.555 248.879 773.038C249.649 766.895 251.12 760.861 253.263 755.053C253.517 754.102 253.86 753.178 254.285 752.29C260.638 741.968 262.648 729.989 267.024 718.914C269.383 713.151 270.381 706.922 269.938 700.71C268.823 687.279 271.822 674.751 277.693 662.772C278.377 661.395 279.104 660.002 278.724 657.915C275.539 655.288 271.256 655.989 267.387 655.263C263.113 654.46 260.021 657.096 256.482 659.816C256.482 657.281 259.092 655.634 257.276 653.793C260.426 647.727 266.754 644.661 283.759 642.549C283.142 639.576 280.599 638.401 278.58 636.881C276.435 635.267 274.272 633.739 273.402 631.188C271.249 630.235 268.918 629.748 266.564 629.762C264.209 629.775 261.885 630.287 259.742 631.263C247.46 636.484 239.173 641.468 229.331 650.295C228.726 653.817 227.807 657.277 226.586 660.635C225.876 662.501 225.919 664.57 226.704 666.405C227.236 667.706 227.667 669.049 228.233 670.324C229.12 672.181 229.552 674.223 229.492 676.28C229.431 678.337 228.881 680.349 227.887 682.151C224.178 689.171 219.743 695.616 213.036 700.195C207.968 703.572 204.002 708.362 201.632 713.973C199.326 719.396 198.819 724.777 201.632 730.226C202.446 731.71 202.9 733.364 202.959 735.056C203.017 736.747 202.679 738.429 201.97 739.966C199.374 746.204 195.171 751.643 189.789 755.728C175.563 766.507 161.473 777.532 148.869 790.211C142.111 796.969 137.321 805.036 137.296 815.207C137.296 818.265 136.527 821.332 136.578 824.432C136.578 826.797 134.559 828.318 134.348 830.666C134.044 834.121 132.811 837.466 133.241 840.871C131.484 841.352 131.104 840.347 130.623 839.511C123.383 827.084 119.742 813.771 120.3 799.309C120.41 796.403 119.675 793.455 119.168 790.549C118.008 784.033 118.08 777.356 119.379 770.866C121.068 762.579 122.319 754.259 121.964 745.769C121.711 739.788 123.299 734.204 125.343 728.671C128.553 719.97 131.501 711.16 135.716 702.873C137.262 699.849 138.056 696.546 139.332 693.42C144.054 681.889 151.471 672.943 162.647 666.836C172.573 661.404 182.668 656.631 193.641 653.818C196.665 653.041 199.368 651.537 202.156 650.203C207.131 647.804 212.208 645.937 217.919 646.334C220.027 646.486 222.094 646.992 224.035 647.829C230.995 646.486 235.861 642.085 241.251 638.621C248.668 633.874 256.059 628.898 265.09 627.538C265.679 627.331 266.246 627.062 266.779 626.736C262.96 623.774 258.541 621.684 253.829 620.611C249.605 619.674 245.28 618.998 240.989 618.288C234.865 617.266 229.061 615.053 223.08 613.499C215.477 611.539 207.664 611.386 200.052 611.471C193.438 611.555 187.178 615.103 181.164 618.229C176.154 620.831 171.72 624.328 167.023 627.403C158.575 632.945 149.494 637.54 141.148 643.276C138.36 645.202 135.108 646.123 131.856 647.153C122.31 650.228 113.609 655.187 104.714 659.689C95.1939 664.504 87.6418 671.989 79.2788 678.375C71.127 684.609 63.0597 690.928 55.4062 697.804C49.7971 702.83 46.2323 709.631 40.6654 714.564C30.596 723.535 23.4495 734.889 15.1034 745.279C11.5132 749.756 6.80793 753.304 4.12164 758.584C3.97966 758.904 3.77495 759.192 3.51963 759.432C3.26431 759.671 2.96349 759.857 2.63508 759.978C2.30666 760.099 1.95733 760.154 1.6076 760.138C1.25788 760.122 0.914894 760.035 0.599001 759.885C-0.347117 758.972 0.0329867 758.026 0.353991 757.089C1.48595 753.76 2.54195 750.331 4.43419 747.391C9.29994 739.788 11.7159 731.341 13.625 722.167C10.7276 719.041 13.4392 715.645 14.0305 712.165C14.2164 710.754 12.6536 710.045 12.6536 707.941C15.5257 703.135 13.5405 697.246 13.5574 691.477C13.4645 690.396 11.8679 690.632 11.7919 689.898C11.5131 687.642 12.7803 686.299 13.2618 684.669C13.4645 683.342 12.1467 682.43 12.2143 681.357C12.2143 680.977 12.1636 680.808 12.2143 680.706C14.436 677.091 13.701 672.791 14.9597 668.956C16.1255 665.825 16.947 662.576 17.4095 659.267C17.8319 655.356 21.2024 652.509 22.7652 648.868C23.3903 647.406 24.1083 645.869 24.7841 644.374C25.9645 643.352 27.2306 642.433 28.5686 641.628C29.8523 641.047 30.9735 640.158 31.8336 639.042C32.6938 637.925 33.2667 636.615 33.502 635.225C33.747 633.958 34.6255 632.97 35.1915 631.846C40.3107 620.814 50.5828 615.103 59.6892 608.32C66.0144 603.696 71.9915 598.614 77.5724 593.114C77.8307 592.876 78.0305 592.581 78.1565 592.253C78.2825 591.925 78.3312 591.572 78.2989 591.222C77.7498 588.401 74.92 590.335 73.3994 589.043C76.3476 587.886 77.9948 587.936 79.6589 590.048C81.3231 592.16 83.5701 593.089 85.9354 594.019C90.4717 595.809 94.7969 598.242 99.7724 598.665C100.465 598.724 101.242 599.307 101.8 599.112C108.076 596.992 114.682 599.585 120.992 597.71C122.909 597.269 124.687 596.364 126.171 595.075C130.825 590.581 136.401 587.151 140.819 582.403C141.666 581.269 142.848 580.43 144.198 580.004L144.13 579.936C144.688 583.248 147.509 583.003 149.722 583.138C154.63 583.542 159.567 583.444 164.455 582.843C167.437 582.42 169.397 583.257 171.492 585.377C175.613 589.599 180.14 593.404 185.007 596.738C189.071 599.518 193.134 602.238 196.682 605.718C199.216 608.168 202.595 609.004 206.025 609.097C215.317 609.359 224.533 610.246 233.775 610.998C236.722 611.134 239.645 611.593 242.492 612.366C250.94 614.977 259.861 615.745 268.283 618.558C268.826 618.797 269.421 618.894 270.013 618.839C270.604 618.785 271.171 618.58 271.662 618.246C269.263 616.185 266.863 614.217 264.439 612.426C255.544 605.862 248.152 597.347 237.897 592.506C232.17 589.812 228.419 584.616 224.626 579.742C221.64 575.685 218.442 571.789 215.047 568.068C211.389 564.309 206.912 560.465 200.213 558.919C206.202 569.588 207.731 579.32 199.208 588.317C198.735 584.667 201.015 581.33 200.002 577.529C199.073 574.007 198.76 570.323 196.116 567.51C194.697 566.15 192.678 569.495 191.74 566.665C188.539 569.098 184.982 570.231 182.313 572.706C179.508 572.621 176.847 572.874 174.389 571.303C174.651 571.084 174.769 570.915 174.854 570.932C185.894 572.427 192.196 565.221 197.957 557.77C201.598 553.065 204.166 547.532 207.199 542.371C208.584 540.022 208.424 537.674 206.988 534.489C206.574 536.812 207.833 538.713 205.966 539.87C202.857 535.646 199.419 531.642 198.456 526.168C200.846 528.415 203.423 530.451 205.408 533.822C205.67 530.282 203.524 528.17 202.384 525.704C204.47 524.859 205.417 527.089 207.224 526.548C207.334 524.859 207.444 523.043 207.52 521.784C205.552 516.031 201.607 511.799 199.799 506.342C202.215 505.236 203.457 506.562 204.437 507.846C207.393 511.698 209.649 515.803 209.108 520.99C208.77 524.242 208.322 527.613 209.851 530.865C213.703 529.649 211.668 526.109 212.994 523.938C214.683 524.707 213.678 526.472 214.726 527.258C225.64 535.604 232.254 546.459 230.463 554.222C227.279 550.798 224.477 547.036 222.109 543.004C220.419 542.388 218.882 541.095 217.268 540.335C214.928 540.335 213.746 541.509 213.298 543.41C213.492 544.956 214.565 545.716 215.494 546.544C216.214 547.123 216.802 547.848 217.223 548.67C217.644 549.493 217.887 550.394 217.936 551.316C217.868 555.211 219.777 558.303 221.315 561.572C222.364 563.563 223.126 565.693 223.579 567.899C223.701 568.881 224.045 569.822 224.584 570.653C230.354 578.399 235.456 586.762 244.765 591.07C248.079 592.659 250.997 594.968 253.305 597.828C256.329 601.452 260.427 603.741 264.169 606.453C271.628 611.783 278.842 617.274 284.738 624.404C286.943 627.073 289.807 629.177 292.341 631.492C293.926 631.315 295.423 630.672 296.641 629.643C297.859 628.614 298.744 627.247 299.184 625.714C299.67 624.389 299.954 623 300.028 621.591C300.315 612.037 300.873 602.432 299.521 592.946C298.727 587.421 296.928 582.04 295.982 576.498C294.512 567.865 294.58 559.13 294.419 550.43C294.17 541.315 293.428 532.221 292.198 523.186C290.99 513.844 289.247 504.579 286.977 495.436C286.532 494.088 286.477 492.642 286.816 491.263C289.055 484.328 289.511 477.156 289.08 469.992C288.447 459.585 289.139 449.212 289.199 438.821C289.199 434.547 288.895 430.374 287.323 426.395C286.45 424.174 286.399 421.715 287.18 419.46C285.347 417.652 283.404 418.395 281.52 418.792C272.675 420.659 268.097 418.725 263.138 410.987C261.449 408.393 261.618 407.811 264.608 405.446C267.818 406.054 269.854 408.9 272.734 410.26C275.083 411.375 277.169 411.95 279.247 408.943C272.802 403.029 272.126 393.957 266.804 387.241C263.062 382.519 261.102 376.581 259.295 370.811C255.73 359.415 250.518 348.966 242.754 339.808C240.98 337.713 239.308 335.289 240.938 332.392C243.329 330.897 245.458 333.439 247.941 332.231C247.831 328.269 245.855 324.848 243.971 321.52C241.343 317.022 238.146 312.882 234.459 309.203C227.703 302.252 221.381 294.892 215.528 287.164C208.475 277.872 199.74 270.404 190.304 263.697C188.851 262.666 187.305 261.534 185.117 262.007C184.028 263.815 184.061 265.986 183.918 268.005C183.547 272.38 181.902 276.55 179.187 280C172.312 289.276 164.002 297.398 154.571 304.059C153.181 305.023 152.009 306.269 151.133 307.716C147.813 313.266 144.629 318.85 142.365 324.975C139.343 333.332 134.71 341.015 128.73 347.589C127.248 349.295 125.417 350.662 123.361 351.599C121.305 352.537 119.071 353.021 116.811 353.02C112.452 353.02 108.093 352.91 103.743 352.691C101.8 352.598 99.8569 352.057 98.311 354.076C94.7631 351.398 92.0683 348.061 88.4021 347.876C86.5099 347.386 85.7749 348.932 84.964 348.586C81.7962 347.994 80.8839 345.139 78.7889 343.914C77.2346 343.762 76.1364 345.173 75.0805 344.877C73.0277 344.624 72.7236 342.866 71.2284 341.996C67.9676 342.461 66.6667 337.663 63.085 338.55C59.4695 334.233 57.3492 319.433 59.7567 315.049C61.8855 315.589 63.5159 314.458 65.1716 313.089C67.3723 311.116 69.7601 309.362 72.3012 307.852C79.7772 303.771 83.8658 297.098 87.3293 289.689C92.2626 279.13 96.9087 268.376 104.393 259.279C106.437 256.744 106.927 253.72 107.629 250.603C116.237 245.535 124.971 241.311 135.125 240.643C138.665 240.432 141.79 241.066 144.468 243.034C146.591 243.089 148.713 242.905 150.795 242.485C155.019 244.065 159.243 244.656 163.466 245.704C166.068 247.9 169.16 248.939 172.759 249.699C168.594 246.912 166.845 246.168 163.466 245.687C158.398 242.206 152.341 241.463 146.005 239.773C143.471 237.383 141.064 234.08 138.656 230.828C135.499 226.336 131.593 222.421 127.108 219.255C119.852 214.363 114.226 208.222 110.636 200.036C108.566 195.323 105.272 191.141 102.484 186.749C99.9498 182.778 97.9224 178.58 97.8717 173.807C97.821 169.034 95.9372 164.794 93.9183 160.604C92.761 158.205 91.4685 155.856 90.3788 153.423C89.2888 151.111 88.9919 148.504 89.5341 146.006C90.6829 140.769 89.3566 136.013 86.8562 131.435C84.8372 127.735 82.8943 123.992 80.943 120.225C80.2165 118.789 79.414 117.268 80.6473 114.734C82.855 118.116 85.554 121.151 88.6555 123.739C97.7703 131.519 107.73 138.1 117.774 144.537C127.816 151.04 137.086 158.663 145.406 167.26C152.679 174.702 160.299 181.832 166.524 190.195C170.985 196.108 175.817 201.827 179.542 208.332C182.743 213.958 184.72 219.888 184.45 226.393C184.247 231.461 186.613 235.938 187.119 240.829C187.559 245.112 187.643 249.556 191.453 252.749C192.61 253.712 192.771 255.536 192.847 257.082C193.007 260.343 194.697 262.607 197.307 264.322C205.484 269.711 211.989 276.774 218.493 284.047C225.615 292.013 232.499 300.181 239.612 308.172C242.9 311.833 245.932 315.717 248.685 319.796C250.037 322.004 251.825 323.912 253.939 325.406L254.724 324.941C252.604 319.644 250.501 314.331 248.355 309.043C246.522 304.523 243.793 300.266 244.52 295.037C244.529 294.611 244.43 294.189 244.233 293.812C240.246 284.351 237.787 274.34 234.045 264.786C232.753 261.5 231.021 258.451 229.475 255.292C228.901 254.134 228.157 252.985 226.898 252.63C223.942 251.786 222.827 249.505 221.754 246.962C218.529 239.29 213.847 232.316 207.968 226.426C206.556 225.06 205.014 223.835 203.364 222.769C193.473 216.139 186.184 206.288 182.735 194.892C181.931 192.335 181.709 189.631 182.085 186.977C182.507 184.627 182.584 182.228 182.313 179.855C181.916 177.254 183.411 175.632 185.759 174.736C187.371 174.249 188.946 173.648 190.473 172.937C195.474 170.141 200.787 168.907 206.304 170.588C212.276 172.422 217.995 170.259 223.824 170.158C225.64 170.158 227.456 169.854 229.213 169.701L232.085 171.847C235.692 172.067 239.35 172.329 241.935 175.387C240.752 178.833 240.144 179.112 235.667 178.141C235.414 176.451 234.569 174.93 232.423 174.812C227.287 176.417 222.286 178.546 216.559 178.191C214.185 175.851 211.693 173.613 208.39 172.523C203.085 170.774 197.932 170.597 192.923 173.452C190.135 175.049 186.773 175.471 184.585 177.228C180.834 194.757 187.804 207.96 200.475 218.494C206.278 223.309 213.391 226.401 220.217 229.704C222.844 230.866 225.742 231.275 228.588 230.887C230.776 226.224 236.064 223.436 235.346 217.497C237.416 217.497 236.402 219.575 237.796 219.896C239.57 219.778 240.651 217.928 242.543 217.497C242.594 218.891 241.065 219.905 241.606 221.358C243.532 222.017 243.937 219.508 246.049 219.668L240.778 228.31C239.654 228.977 239.088 227.423 238.243 227.871C237.448 228.431 236.828 229.204 236.453 230.101C243.32 231.436 249.276 229.138 255.214 226.823C261.871 224.23 262.167 216.551 266.889 212.176C267.277 208.273 265.09 205.586 262.091 203.559C259.092 201.532 257.546 199.073 258.424 195.509C257.005 193.464 255.045 192.974 253.043 192.772C251.354 193.084 250.45 194.791 248.735 194.757C241.563 190.837 241.91 187.619 245.627 177.617C246.615 176.409 248.304 176.037 249.234 174.567C250.154 171.653 248.271 170.876 245.855 170.048C240.296 168.122 234.636 168.62 228.909 168.401C221.365 168.105 213.796 167.649 206.236 167.269C203.854 167.15 201.387 167.438 199.098 166.931C190.262 164.979 183.115 160.578 178.486 152.435C175.386 146.9 171.175 142.066 166.119 138.235C168.146 143.303 172.514 147.037 174.668 152.95C169.515 150.07 164.936 147.738 160.881 144.503C158.111 142.306 155.222 140.279 151.707 139.493C148.489 138.801 146.639 136.706 145.211 133.994C142.939 129.77 142.491 125.133 141.621 120.613C140.777 116.491 139.746 112.385 139.602 108.136C139.615 107.288 139.445 106.447 139.104 105.67C137.076 101.784 136.857 97.6531 137.288 93.4293C137.845 88.0145 135.201 82.9882 135.353 77.7169C135.902 76.1711 137.254 77.717 138.242 76.5006C139.036 75.301 138.073 73.0287 140.777 71.2462C131.636 74.1099 128.773 80.5383 127.37 87.9721C126.971 89.7604 127.082 91.6251 127.691 93.3532C129.862 99.182 130.226 103.389 129.203 110.594C127.632 109.378 128.08 107.782 128.063 106.421C128.004 101.784 128.249 97.1292 125.833 92.8548C125.403 91.9528 125.287 90.9329 125.503 89.9573C126.787 81.0284 130.335 73.4932 138.791 69.2187C142.289 67.4448 145.929 68.2474 149.435 69.5398C162.951 74.5323 174.271 82.5489 182.701 94.3584C184.993 97.5799 188.214 100.024 191.934 101.361C198.129 103.738 203.732 107.434 208.356 112.191C212.327 116.237 216.981 119.388 221.357 122.911C222.1 123.502 222.861 124.246 224.229 123.756C225.074 118.763 219.887 115.097 220.783 109.936C226.012 118.442 228.605 128.52 237.568 134.349C238.902 133.082 236.225 131.958 237.568 130.514C240.786 133.741 241.335 138.556 244.672 142.416C245.567 139.983 245.306 138.319 244.055 136.672C238.657 129.551 237.128 121.551 238.142 112.757C238.666 108.314 239.156 103.566 238.142 99.3172C236.731 93.404 236.258 87.44 235.608 81.476C235.416 79.5303 235.066 77.6037 234.56 75.715C233.716 90.2869 237.095 104.774 235.473 120.191C232.879 109.463 231.654 99.4523 233.192 88.9352C230.539 84.8298 232.178 80.209 231.967 75.6389C230.61 79.278 230.079 83.1734 230.413 87.043C230.882 92.0805 230.981 97.1457 230.708 102.198C230.345 110.164 231.908 117.783 234.425 125.259C234.594 125.766 235.008 126.273 234.282 127.084C228.182 119.431 223.959 110.806 219.921 101.801C216.077 100.77 214.481 97.9571 214.472 94.0037C214.472 93.0238 214.21 92.0524 214.16 91.0725C213.915 86.325 214.219 81.5775 212.546 76.9229C211.752 74.7097 212.175 72.0571 211.82 69.6073C209.789 76.7591 209.24 84.2501 210.206 91.6215C210.755 95.71 213.763 98.5654 215.917 101.826C217.209 103.786 218.595 105.687 218.882 108.432C216.854 108.339 216.981 106.743 216.348 105.847C215.106 104.158 214.058 102.299 212.774 100.635C208.356 94.8992 207.588 88.3017 208.255 81.4086C208.841 75.1065 210.064 68.8799 211.904 62.8241C213.29 58.347 213.214 58.33 217.817 57.0291C218.916 55.6859 219.769 53.9204 221.289 52.6026C223.536 50.6597 223.427 47.7621 223.334 45.1265C223.005 38.3702 223.718 31.6036 225.446 25.0637C226.73 29.6 224.542 34.0772 224.939 38.5797C225.287 43.3994 225.185 48.2411 224.635 53.0419C230.852 47.399 233.42 41.3506 231.088 33.6127C230.593 31.7034 230.337 29.7397 230.328 27.7671C230.228 26.959 230.384 26.1398 230.775 25.4257C231.166 24.7115 231.773 24.1385 232.508 23.7882C233.893 24.6329 233.462 26.6182 234.645 27.7502C237.069 21.2456 237.255 14.5215 238.421 7.92397C238.227 11.9281 238.733 15.9237 238.058 19.9194C240.702 14.91 240.372 9.53728 240.102 4.16468C241.234 4.756 241.791 5.8542 242.264 7.35785C242.636 6.47087 242.687 5.99779 243.43 6.07382C246.716 11.5731 245.812 17.9004 246.514 23.9065C248.262 17.8497 246.514 11.9111 245.821 5.32208C247.538 7.17577 248.891 9.33667 249.808 11.6915C254.327 23.0956 254.353 35.1162 254.032 47.0103C253.778 55.2973 253.685 63.5844 253.542 71.8629C253.542 73.0202 253.17 74.2788 254.302 75.7824C254.479 72.0909 254.623 68.8471 254.775 65.6455C255.333 75.6304 256.465 85.5393 256.929 95.4905C257.07 98.2768 256.651 101.063 255.696 103.684C252.773 92.3395 254.243 80.7919 251.312 69.7933C251.43 84.154 251.81 98.5146 254.471 113.205C252.689 111.515 253.094 109.294 251.143 107.782C252.047 112.732 254.302 116.786 255.696 121.179C255.121 122.158 254.451 123.078 253.694 123.925C249.47 127.794 249.58 132.533 250.729 137.534C250.881 138.218 250.982 138.919 251.134 139.603C253.668 150.99 256.076 162.411 255.51 174.17C255.443 175.581 255.079 177.22 256.355 178.394C256.786 178.191 257.2 178.115 257.259 177.938C258.652 172.81 260.105 167.657 258.653 162.285C258.289 160.933 257.681 159.649 257.715 158.213C257.842 153.001 256.608 147.865 256.87 142.636C257.01 141.223 256.671 139.804 255.907 138.606C255.763 138.247 255.691 137.862 255.696 137.474C256.693 136.571 257.647 136.224 258.923 137.297C258.332 145.018 259.48 152.798 259.455 160.857C262.099 158.492 259.751 154.327 263.679 152.409C261.812 147.865 264.447 142.889 263.501 137.804C263.214 140.414 261.812 142.509 260.52 145.06C259.776 139.882 261.423 135.878 264.371 132.389C264.445 130.542 264.518 128.852 264.591 127.321C263.569 127.135 263.898 128.376 262.75 127.996C263.679 119.769 265.833 111.6 265.689 103.152C264.101 103.465 265.174 105.332 263.679 105.898V93.5644C261.043 100.077 261.381 106.751 262.226 113.433C262.707 117.293 262.682 117.952 261.381 121.813C260.536 112.419 260.215 103.118 259.151 93.9361C257.031 75.774 257.149 57.4937 255.426 39.3316C254.496 29.5664 254.75 19.6658 251.286 10.2722C251.16 9.94274 251.126 9.48672 251.819 9.36846C252.072 9.79928 252.401 10.2131 252.663 10.7453C254.184 13.8878 254.708 17.3512 255.873 20.6626C256.224 18.1695 256.297 15.6453 256.093 13.136C255.071 4.68852 250.543 0.616781 242.476 0.616781C240.651 0.616781 238.97 0.802609 239.342 3.3453C234.197 6.30192 234.197 6.30194 226.265 19.2097C225.741 14.5044 230.649 7.1636 239.13 0.00858735C251.32 -0.920635 261.094 3.59026 267.911 14.0989C268.721 15.4168 269.848 16.5115 271.189 17.2836C275.945 19.9108 279.754 23.6362 283.243 27.7164C287.1 32.1092 289.104 37.8256 288.835 43.6651C288.557 50.3386 291.184 56.2604 292.949 62.4018C293.608 64.6826 294.461 66.9126 295.078 69.2272C296.024 72.8005 295.467 75.6558 291.91 77.3199C291.184 82.1097 291.733 86.7472 291.699 91.3595C291.623 100.297 289.165 108.804 287.019 117.327C286.174 120.774 283.328 123.418 280.059 125.124C280.633 127.659 282.179 125.454 283.252 126.07C283.834 127.566 281.41 127.219 281.478 128.495C281.714 129.863 281.951 131.24 282.162 132.431C281.748 133.943 281.021 134.89 279.484 135.194C275.37 133.107 278.85 127.996 275.539 124.955C275.294 127.489 276.139 129.568 275.193 131.781C273.317 133.47 271.037 135.286 271.636 138.944C273.157 138.328 273.157 136.207 274.745 136.013C277.034 138.919 277.043 139.316 274.914 142.087C274.289 141.732 274.475 141.132 274.475 140.583C274.542 140.313 274.515 140.029 274.398 139.777C274.281 139.525 274.082 139.321 273.833 139.198C270.513 145.457 271.755 152.553 269.609 159.472C272.743 157.301 271.366 153.947 272.887 151.751C274.297 149.706 273.385 146.462 276.113 144.781C277.997 149.436 274.424 165.055 270.361 170.893C270.504 166.762 272.895 163.053 272.574 158.813C270.613 162.881 269.425 167.278 269.068 171.78C269.068 172.042 269.575 172.329 269.854 172.624C269.744 175.159 267.818 177.237 268.164 180.903C271.543 176.949 272.481 173.005 273.334 168.544C278.523 164.004 283.195 158.905 287.264 153.339C291.741 147.054 293.541 140.321 292.181 132.659C291.496 128.799 291.285 124.854 290.922 120.943C290.787 119.397 290.981 117.91 292.561 116.787C293.743 118.476 293.042 120.588 294.808 122.227C294.36 118.231 296.151 115.3 298.263 112.571C301.346 108.576 304.261 104.445 307.834 100.854C306.144 105.247 302.951 108.685 300.231 112.385C298.599 114.262 297.592 116.6 297.35 119.076C299.733 115.959 301.228 113.163 303.779 110.823C304.151 112.918 301.802 113.737 302.427 115.841C304.547 113.272 306.521 110.587 308.341 107.799C310.072 105.121 311.508 102.155 314.254 100.28L314.516 100.491L314.71 103.668C314.414 104.462 313.156 105.163 314.448 106.126C316.045 106.658 317.151 105.839 318.114 104.732C327.407 94.0881 336.361 83.1318 343.313 70.7224C343.423 70.5281 343.313 70.224 343.313 69.6411C340.779 71.2377 340.678 74.7097 337.957 75.867L338.025 75.9262C338.684 73.2737 340.45 71.2123 341.835 68.9653C344.639 64.4205 347.681 60.0195 349.438 54.9257C350.282 52.3914 352.512 51.403 354.65 49.9923L359.718 50.3977C360.715 51.1073 359.718 52.0874 360.622 53.3207C361.104 53.9627 362.033 51.7324 362.92 52.9573C365.699 56.5391 366.823 61.1092 369.602 64.8853C371.891 68.0108 371.215 72.8259 369.45 75.4784C369.83 76.1542 370.894 75.6389 371.139 76.509C371.57 77.7423 370.244 78.4687 370.193 79.5838C370.142 80.6989 371.578 81.0114 371.317 82.5235L367.093 90.5232C367.878 91.7059 368.613 89.8475 368.782 90.1854C371.097 92.0523 370.793 94.181 370.996 96.0479C371.688 102.451 373.893 108.66 373.378 115.224C373.325 117.039 372.814 118.812 371.891 120.377C370.045 123.2 368.426 126.166 367.051 129.247C364.905 134.425 361.357 138.539 357.86 142.763C357.102 143.783 356.127 144.623 355.005 145.221C349.488 147.806 344.868 151.742 339.985 155.256C335.651 158.365 331.09 160.62 325.582 160.266C325.302 160.219 325.017 160.219 324.737 160.266C319.17 161.955 313.578 159.979 308.079 160.316C299.978 160.815 291.42 160.519 284.62 166.492C283.22 167.594 281.969 168.871 280.895 170.293C279.095 171.678 277.431 169.651 275.826 171.324C277.896 174.643 280.844 177.017 284.806 177.076C288.557 177.203 292.211 178.303 295.408 180.269C300.003 182.922 305.164 183.555 310.157 185.481V183.927C310.362 183.727 310.52 183.484 310.619 183.215C310.719 182.947 310.757 182.659 310.732 182.374C310.707 182.089 310.619 181.813 310.474 181.565C310.329 181.318 310.132 181.106 309.895 180.945C307.884 177.718 303.779 177.439 301.236 175.032C301.532 173.63 302.081 173.081 303.289 173.824L303.348 173.756C302.993 174.263 302.833 174.931 303.458 175.176C310.216 177.853 317.075 180.109 324.501 178.005L324.416 178.056C327.069 177.211 329.806 177.794 332.534 177.575C327.981 175.885 323.149 175.885 318.486 175.04C317.685 174.71 316.807 174.61 315.952 174.753C316.188 174.289 316.433 173.832 316.797 173.064C313.705 172.844 310.647 173.427 306.888 172.312C313.037 169.034 319.559 168.333 324.501 164.464L324.433 164.532C327.39 162.226 330.954 162.209 334.384 162.141C338.576 162.18 342.736 161.406 346.633 159.86C348.525 158.929 350.615 158.471 352.724 158.525C358.924 159.049 364.153 156.523 369.238 153.457L371.553 152.08C372.508 153.525 371.072 154.902 371.739 156.11C368.563 154.336 365.919 156.11 363.612 157.799C357.436 162.212 351.725 167.242 346.565 172.81C344.369 175.167 341.362 176.857 339.934 179.813C337.755 184.341 333.759 186.664 329.654 188.767C324.273 191.521 319.702 195.526 314.237 198.187C312.809 198.879 311.703 200.433 310.681 201.734C308.76 203.976 307.007 206.357 305.435 208.856C303.357 212.395 298.187 214.541 294.064 212.961C291.37 211.93 288.709 210.824 285.997 209.734C286.656 206.397 287.365 203.238 287.889 200.053C288.616 195.568 287.306 193.05 283.108 191.386C280.709 190.44 278.994 189.097 278.158 186.639C278.03 186.087 277.761 185.577 277.377 185.16C276.994 184.742 276.509 184.431 275.97 184.257C273.753 185.42 271.867 187.126 270.487 189.215C271.079 192.054 274.103 192.425 275.235 194.394C276.08 196.784 274.914 198.617 273.985 200.484C271.974 204.615 272.295 206.676 275.573 209.92C280.337 214.668 286.411 216.991 292.755 218.368C301.118 220.142 309.785 219.981 318.19 221.747C319.035 221.924 320.26 222.431 320.902 221.104C315.487 220.936 311.179 217.041 304.852 217.185C308.282 212.868 310.208 208.493 315.411 208.02C316.822 206.06 316.552 203.796 317.455 201.599C321.155 199.64 323.546 195.686 326.967 193.853C335.668 192.898 341.928 188.784 346.827 181.587C347.672 185.422 346.65 188.835 348.635 191.285C348.568 194.588 347.326 197.266 346.599 200.079C350.147 197.679 350.08 193.76 350.958 189.798C353.661 195.449 349.412 199.8 349.159 205.13C353.568 197.916 354.413 190.423 354.464 182.778C354.464 180.996 354.371 179.273 355.418 177.828C356.212 177.972 356.432 178.36 356.474 178.766C356.572 179.607 356.606 180.454 356.576 181.3C356.314 188.235 354.405 194.883 352.69 201.574C352.225 203.373 351.609 205.299 349.868 206.642C347.131 208.712 343.372 209.447 341.987 212.725C340.762 213.223 340.297 211.837 339.343 212.344C338.236 213.088 338.008 214.938 335.964 214.803C334.578 212.328 336.217 209.734 335.846 207.141C334.251 212.146 331.83 216.849 328.682 221.054C332.23 221.189 334.325 219.66 336.505 218.519C343.317 215.116 349.298 210.257 354.025 204.285C359.634 197.181 360.225 188.666 360.529 180.067C362.776 188.396 361.171 196.117 356.196 204.091C358.95 202.655 358.831 199.986 360.462 199.403C364.415 197.984 365.454 194.334 367.414 191.361C374.67 180.286 374.712 168.384 371.638 156.084C372.273 156.399 372.819 156.869 373.225 157.451C373.631 158.033 373.884 158.707 373.961 159.412C375.828 169.727 375.65 179.779 370.514 189.334C367.414 195.053 364.229 200.763 358.992 204.725C349.64 211.787 340.863 219.972 328.775 222.338C324.944 223.218 320.997 223.48 317.084 223.115C309.422 222.143 301.828 220.724 294.115 220.124C289.739 219.778 285.803 217.768 282.061 216.467C281.44 216.633 280.894 217.003 280.51 217.518C280.127 218.033 279.929 218.663 279.949 219.305C279.83 221.265 279.442 223.335 279.898 225.218C281.495 231.791 279.78 238.286 279.771 244.816C279.771 246.202 279.771 247.706 277.6 248.077C274.145 239.799 270.648 231.495 265.901 223.58C265.155 224.115 264.566 224.84 264.193 225.678C263.821 226.517 263.678 227.44 263.78 228.352C263.941 238.785 261.88 249.049 261.44 259.431C260.824 273.927 261.322 288.363 263.839 302.673C264.43 305.885 265.897 308.87 268.08 311.298C261.229 326.419 257.943 342.486 257.639 359.196C259.219 344.733 263.079 330.871 268.477 316.578C269.322 321.773 265.723 325.346 266.078 329.883C267.666 328.455 267.277 326.081 268.882 324.899L269.119 325.084ZM201.539 154.504C200.145 152.967 185.354 142.23 183.487 141.732C189.265 147.096 194.578 151.928 201.531 154.504C201.801 155.603 202.705 156.042 203.609 156.422C215.207 161.398 226.839 166.297 239.671 167.024C241.673 167.142 243.827 167.987 245.939 166.855C245.669 166.458 245.618 166.272 245.517 166.255C244.989 166.119 244.453 166.02 243.912 165.959C231.857 164.684 220.107 162.183 208.922 157.326C206.489 156.278 204.318 154.53 201.514 154.504H201.539ZM268.274 129.204C266.847 134.391 264.118 139.4 265.901 145.508C266.382 144.613 266.618 144.165 266.897 143.658C267.258 143.963 267.532 144.358 267.691 144.803C267.849 145.248 267.888 145.728 267.801 146.192C266.509 154.217 266.45 162.403 264.625 170.352C264.498 170.893 264.355 171.754 263.206 171.374C263.806 165.368 265.63 159.548 265.436 153.44C264.456 158.12 263.18 162.682 261.93 167.277C261.085 170.344 259.937 173.41 260.089 176.713C260.19 179.044 260.933 180.734 263.704 181.173C264.019 178.762 264.815 176.438 266.044 174.339C267.165 172.368 267.657 170.102 267.455 167.843C267.361 165.749 267.514 163.651 267.911 161.592C268.511 157.292 268.874 152.959 269.727 148.684C270.018 147.016 269.719 145.299 268.882 143.827C268.249 142.594 267.193 141.293 267.894 139.806C268.933 139.417 269.161 140.71 270.243 140.178C269.584 138.556 271.087 136.799 269.913 135.059C268.739 133.318 268.485 131.164 268.224 129.095C269.913 129.508 269.685 131.671 271.18 132.288C271.814 127.616 271.729 127.473 268.224 127.27C267.582 127.988 268.029 128.579 268.232 129.204H268.274ZM315.884 555.743C316.577 553.825 316.349 552.17 316.315 550.565C316.087 538.063 315.741 525.569 315.597 513.066C315.453 500.851 315.504 488.628 315.47 476.413C315.493 471.776 315.211 467.142 314.626 462.542C314.212 458.492 312.67 454.64 310.174 451.425C309.05 452.042 310.022 453.435 308.915 453.959C307.901 454.01 306.753 453.376 305.587 454.069L302.208 457.372C298.981 477.012 298.829 481.87 301.084 500.454C301.197 501.294 301.251 502.141 301.245 502.988C301.067 516.107 303.838 528.939 304.928 541.94C305.882 553.234 308.78 564.326 307.91 575.823C307.454 581.82 310.672 587.049 312.277 593.495C313.612 589.727 314.626 586.855 315.8 583.518C308.805 574.623 311.323 563.312 308.434 552.786C310.241 552.06 310.123 549.619 311.981 549.086C315.023 550.362 313.84 553.741 315.842 555.743H315.884ZM237.872 232.331C236.36 240.445 236.343 248.767 237.821 256.888C240.305 270.792 245.424 283.92 249.605 297.292C251.505 303.475 253.88 309.502 256.71 315.319C256.852 314.909 256.875 314.467 256.777 314.044C254.936 305.824 253.027 297.622 251.269 289.385C250.737 286.919 249.842 284.317 252.114 281.124C252.762 286.757 254.34 292.244 256.786 297.36C257.166 294.724 256.727 292.621 257.69 290.864C259.438 287.662 259.219 284.224 258.602 280.989C256.304 269.027 256.245 256.973 256.49 244.893C256.543 241.379 256.26 237.869 255.645 234.409C255.333 232.618 255.02 230.785 253.111 229.695C247.907 230.152 243.118 232.441 237.829 232.331H237.872ZM250.062 151.928C247.282 148.456 244.765 144.9 241.082 142.83C237.608 140.937 234.942 137.844 233.58 134.129C232.533 131.46 230.463 129.627 227.929 127.853C228.993 132.212 227.084 135.912 226.155 139.814C225.133 144.283 226.24 146.75 230.227 148.972C232.539 150.29 234.578 152.039 236.233 154.124C238.546 157.135 241.547 159.548 244.985 161.161C246.835 159.556 248.6 158.129 251.075 158.83C252.342 159.674 252.123 161.626 253.609 162.53C253.871 156.523 252.553 151.472 250.23 149.309C249.495 150.095 250.627 150.864 250.019 151.928H250.062ZM407.742 511.901C405.934 511.901 404.439 512.01 403.054 512.872C403.898 514.722 402.37 515.009 401.364 515.567C397.664 517.552 393.964 519.537 390.383 521.784C382.121 526.988 381.09 534.709 382.518 543.435C384.638 536.474 389.039 530.983 394.454 526.599C399.024 522.908 404.051 519.841 406.771 515.111C410.471 513.32 415.218 514.84 416.696 509.535C413.79 511.613 413.419 507.846 411.282 507.846L407.742 511.901ZM432.476 624.413C425.355 614.926 422.812 603.344 417.026 592.396C420.561 594.356 424.247 596.029 428.05 597.398C430.111 598.242 432.324 598.876 434.048 600.396C437.965 604.002 442.135 607.325 446.524 610.339C450.241 612.78 452.793 616.548 456.611 618.845C452.319 612.087 445.984 607.424 439.048 602.652C442.689 601.309 445.24 604.476 448.391 603.04C447.209 601.748 445.857 601.604 444.734 601.3C438.353 599.598 432.27 596.929 426.698 593.385C423.289 591.15 419.635 589.311 415.809 587.902C414.745 587.528 413.78 586.915 412.988 586.111C410.023 583.146 406.12 582.825 401.406 581.837C402.689 583.158 404.302 584.112 406.078 584.599C408.696 585.607 410.955 587.371 412.566 589.668C416.69 594.983 419.836 600.99 421.858 607.408C423.894 613.921 428.16 619.167 432.434 624.413H432.476ZM299.665 448.24C301.414 447.852 301.566 445.791 302.917 445.782C305.207 445.622 306.66 446.948 308.831 448.215C306.524 441.955 303.424 436.904 300.096 431.607C298.803 434.479 298.677 442.597 299.623 448.24H299.665ZM350.553 123.595C337.535 131.494 328.091 139.189 327.052 142.534C335.254 136.334 343.964 131.367 350.51 123.595H350.553ZM525.914 682.227C521.225 673.488 515.008 665.661 507.557 659.115C513.589 666.853 519.815 674.489 525.872 682.227H525.914ZM349.649 584.397C342.798 586.475 335.406 587.269 329.915 592.785C330.173 593.282 330.49 593.744 330.862 594.162C331.289 594.395 331.747 594.568 332.222 594.677C336.935 589.55 343.127 586.762 349.607 584.397H349.649ZM291.15 180.928C293.735 182.88 294.605 185.997 296.835 188.075C299.192 190.313 301.549 192.476 304.556 193.819C307.217 195.002 309.726 196.776 313.105 196.353C312.193 194.757 310.723 195.002 309.625 194.495C303.661 191.724 297.41 189.376 294.858 182.356C294.368 181.097 292.975 180.227 291.108 180.928H291.15ZM347.334 82.0337L346.616 81.4338C342.556 85.2183 339.027 89.5348 336.124 94.2656L336.851 94.8654L347.334 82.0337ZM331.081 95.0174C336.15 92.0016 342.553 84.5087 343.499 80.6567L331.081 95.0174ZM333.928 141.521L334.173 142.366L349.885 137.863C349.775 137.5 349.674 137.136 349.564 136.782C344.107 137.66 339.039 139.814 333.886 141.504L333.928 141.521ZM343.997 146.682L344.58 147.459C347.554 145.162 350.561 142.906 353.484 140.549C354.852 139.443 356.018 138.133 357.328 136.917L356.711 136.207C352.124 139.316 348.255 143.269 343.955 146.682H343.997ZM482.646 636.813C480.03 633.386 476.4 630.87 472.272 629.625C475.657 632.086 479.115 634.482 482.646 636.813ZM334.291 109.133L333.818 108.441C330.524 110.856 326.959 112.977 325.058 116.972L334.291 109.133ZM389.141 546.594L383.616 551.494C387.08 551.637 388.347 549.306 389.099 546.594H389.141ZM262.327 621.557C265.706 623.162 268.198 624.091 271.028 624.142C268.764 622.165 266.264 621.152 262.285 621.557H262.327ZM261.998 347.58C261.263 350.791 261.263 354.126 261.998 357.337V347.58Z" fill="#B68C8C"/>
</svg>
