<svg width="437" height="675" viewBox="0 0 437 675" fill="none" xmlns="http://www.w3.org/2000/svg">
<path opacity="0.2" d="M314.877 149.092C316.307 148.822 316.245 150.392 317.338 150.62C317.643 147.393 315.451 144.584 317.105 140.658C318.474 143.22 317.909 146.025 319.473 147.988C318.714 144.93 319.506 141.502 317.893 138.842C318.272 136.276 320.085 134.171 321.075 130.866L314.246 139.365C311.858 137.465 312.732 134.68 311.902 132.864C312.193 131.379 313.844 130.704 313.526 129.161C312.281 128.467 310.012 128.18 310.667 125.822C311.865 125.182 311.667 126.809 312.921 126.471C311.035 116.049 308.483 105.952 303.829 96.5349C302.499 93.8487 300.5 90.9736 304.003 87.9061C307.507 84.8386 310.627 86.3911 313.785 87.8498C319.421 90.4288 323.795 94.2287 327.565 98.6682C329.672 101.139 331.665 103.692 334.103 106.126C329.555 100.707 329.879 94.4862 332.846 87.8285C335.489 81.9054 333.943 74.6899 341.453 70.0874C347.245 72.9744 346.891 78.3842 346.721 83.4518C346.564 88.0693 346.319 92.6528 346.974 97.1539C347.378 99.8915 348.453 102.64 345.847 105.553C345.301 106.17 345.478 107.581 346.865 108.148C348.343 107.018 349.631 105.452 351.586 105.116C354.267 97.0388 350.662 90.0598 351.204 82.4307C351.264 81.66 350.403 80.9313 349.964 80.1911C347.528 75.9236 346.786 70.8562 347.847 65.7345C355.289 61.5449 357.245 61.5711 363.094 65.7121C363.275 65.8372 363.417 66.0863 363.619 66.104C369.81 66.6289 372.233 70.363 373.369 75.4197C373.219 72.8788 372.62 70.3336 373.037 67.8072C373.552 64.7114 374.699 61.7507 374.323 58.5255C373.947 55.3003 379.948 52.4564 383.943 54.0737C386.018 54.9143 388.153 55.7677 390.415 55.6814C397.124 55.421 400.67 59.0645 403.642 63.3027C410.752 73.4532 417.963 83.5642 417.745 97.1196C417.703 99.8076 419.284 102.278 419.866 104.921C421.016 110.169 418.68 115.471 417.448 120.744C417.173 121.866 416.513 122.971 417.516 123.868C418.677 124.126 418.636 122.576 419.688 122.597C421.326 123.258 419.864 124.777 420.209 126.011C421.554 126.319 422.245 127.515 423.179 128.854C423.932 125.942 421.446 123.711 423.653 120.885C425.138 121.569 425.009 122.915 425.31 123.987C425.612 125.059 425.436 126.401 426.526 127.768C427.699 124.579 425.889 122.091 426.836 118.985C428.736 120.267 428.033 122.651 429.575 123.703C429.716 120.873 429.716 120.873 431.651 119.404C431.765 118.482 431.558 117.592 431.06 116.861C430.561 116.13 429.795 115.596 428.874 115.335C428.67 110.997 429.271 106.557 430.652 102.194C430.943 101.412 431.399 100.669 431.99 100.01C432.582 99.3516 433.298 98.7907 434.096 98.361C437.42 96.3874 440.396 93.9141 442.871 91.0672C446.688 86.6063 451.655 83.8568 456.69 81.0862C461.725 78.3155 466.044 79.4271 467.807 83.8903C467.778 84.113 467.82 84.3713 467.702 84.5598C458.381 99.3445 454.546 115.282 450.949 130.959C446.837 148.898 437.821 164.975 426.138 180.15C418.947 189.492 409.088 196.951 398.417 203.168C393.351 206.182 388.039 208.772 382.558 210.901C377.511 212.799 376.08 215.277 376.082 220.223C376.102 242.755 378.191 264.921 379.932 287.154C381.36 305.28 382.465 323.459 383.032 341.742C383.287 350.892 384.228 359.928 385.849 368.79C386.632 372.972 385.721 377.586 386.727 381.893C389.826 395.094 394.01 408.018 395.347 421.702C396.487 433.38 399.546 444.624 399.324 456.601C399.205 462.682 403.035 466.905 406.58 471.185C407.003 471.697 407.707 471.919 409.443 471.501C401.915 426.892 409.069 380.761 414.403 334.775C418.082 344.624 424.539 353.44 423.143 365.084C422.806 367.893 423.784 370.28 425.077 372.602C426.705 375.535 428.071 378.615 429.586 381.616C433.512 389.391 431.913 397.792 429.258 406.328C429.007 407.2 428.286 408.028 429.022 409.585C433.95 395.434 438.029 381.787 441.904 368.103C438.669 373.655 437.702 379.703 434.808 385.45C434.568 382.071 434.132 378.715 434.122 375.309C434.085 364.844 431.835 354.541 435.635 343.762C437.04 339.844 438.294 336.02 438.717 332.014C439.832 321.48 437.67 311.899 433.092 303.017C431.926 300.834 431.225 298.41 430.101 295.585C429.748 298.394 430.824 300.212 431.508 302.099C433.59 307.927 433.883 314.387 436.841 319.925C438.016 322.125 436.04 324.694 436.032 327.283C425.066 319.85 416.388 286.333 425.14 269.238C426.393 270.045 426.022 271.381 426.162 272.495C427.615 284.219 430.636 295.424 438.452 304.245C447.442 314.395 451.089 326.528 452.038 339.91C452.217 342.473 451.314 345.104 450.15 347.623C449.661 348.623 449.029 349.617 448.467 350.612L449.593 350.852C452.202 345.914 455.122 341.002 457.473 335.958C460.62 329.227 465.714 323.833 471.608 318.89C480.173 311.709 488.654 304.439 498.143 298.3C500.226 296.818 502.395 295.448 504.634 294.197C518.345 287.302 526.292 275.806 534.543 264.487C536.682 261.55 538.71 258.569 541.402 254.687C541.208 258.121 539.966 260.298 538.763 262.417C530.813 276.477 524.205 290.972 517.469 305.373C511.755 317.596 502.948 327.646 493.134 337.333C490.579 339.85 488.898 342.498 488.612 345.73C488.146 350.815 488.448 355.801 488.653 360.801C489.282 375.698 489.03 390.681 486.861 405.855C484.113 425.103 479.67 444.289 474.682 463.42C472.381 472.21 467.006 480.368 462.41 488.626C458.885 494.977 453.753 500.79 451.82 507.648C449.832 514.699 450.521 521.079 454.547 526.948C458.974 533.385 462.914 540.155 468.043 546.106C480.554 560.623 494.539 573.79 511.687 583.954C512.554 584.474 513.381 585.043 514.163 585.659C514.388 585.834 514.4 586.219 514.555 586.638C513.085 587.652 512.143 586.708 511.293 586.262C500.908 580.785 491.135 574.619 483.522 566.163C480.263 562.55 475.784 560.239 472.027 557.166C466.823 552.909 462.966 547.718 459.615 542.117C457.673 538.857 455.577 535.686 453.491 532.518C452.918 531.642 452.419 530.609 450.746 530.521C450.192 533.889 449.521 537.216 449.142 540.534C448.892 542.882 450.458 544.357 452.012 545.809C458.035 551.452 464.017 557.118 470.019 562.772C471.518 564.187 472.867 565.681 473.304 567.84C463.347 562.674 457.122 553.919 448.642 547.144C447.722 555.492 449.536 563.11 450.832 570.71C454.758 574.786 460.532 576.722 464.2 580.855C466.666 583.621 469.249 586.28 471.559 589.196C472.658 590.566 473.61 592.25 472.367 594.229C470.8 594.8 470.411 593.989 469.973 593.218C465.397 585.289 458.042 579.95 449.731 575.558C447.391 574.32 445.84 572.874 446.59 570.103C447.643 566.196 445.318 563.399 444.462 560.061C442.785 569.692 446.957 578.074 448.142 587.513C444.892 587.388 444.984 585.596 444.538 584.269C443.055 579.856 443.002 574.486 439.337 571.423C432.327 565.568 430.104 555.577 419.757 552.775C418.758 554.785 422.37 555.898 420.476 558.165C425.11 563.745 429.683 569.262 434.103 574.573C433.812 576.287 432.19 575.477 431.636 576.504C431.284 577.858 432.412 578.807 432.804 580.015C433.235 581.313 433.064 582.401 431.108 583.601C412.562 557.068 389.872 533.761 365.651 510.975C365.099 512.954 366.282 513.319 366.824 513.974C372.844 521.256 379.691 527.902 387.275 533.826C388.499 534.775 390.108 535.658 389.838 538.46C386.57 537.614 383.723 536.72 380.735 536.153C372.05 534.464 363.145 536.865 354.244 538.423C331.398 542.408 308.834 543.599 286.78 540.553C286.108 540.49 285.427 540.467 284.74 540.483C283.182 541.315 282.762 542.625 282.279 543.799C275.029 561.332 263.317 576.862 250.741 591.923C247.877 595.351 244.841 598.885 241.111 601.889C237.206 605.038 237.499 609.319 238.478 613.33C241.449 625.224 242.809 637.595 242.531 650.189C242.37 656.861 240.343 663.512 238.732 670.154C238.374 671.63 238.09 673.34 236.384 674.502C234.473 674.083 234.701 672.447 234.809 671.274C235.804 659.239 232.022 648.67 227.699 638.22C225.944 633.933 225.133 629.271 225.305 624.472C225.422 619.698 224.204 614.93 224.236 609.98C224.242 598.954 227.572 587.714 233.87 577.462C237.03 572.229 241.433 568.046 245.402 563.46C246.364 562.348 247.648 561.396 248.114 559.73C246.518 559.77 246.273 561.621 244.554 562.037C247.077 557.788 250.424 554.56 253.468 551.14C255.869 548.447 258.511 545.847 259.825 542.576C263.144 540.064 265.061 536.5 268.367 534.011C264.267 535.913 262.221 539.383 259.84 542.605C254.625 549.016 248.376 554.753 243.623 561.472C243.08 562.241 242.512 562.995 241.911 563.818C240.801 562.935 241.846 562.059 241.899 561.241L252.716 547.931C252.551 547.835 252.392 547.735 252.224 547.632L241.843 559.712C242.318 555.346 244.795 551.291 246.089 547.018C242.034 551.754 241.281 557.48 238.093 562.513C239.581 553.005 247.251 543.791 244.444 533.919C235.023 533.045 227.789 537.462 221.547 543.44C216.577 548.199 212.045 553.367 209.606 559.721C208.927 561.503 207.883 563.193 206.532 564.695C205.181 566.196 203.551 567.477 201.737 568.465C201.84 565.793 202.29 563.096 203.077 560.432C205.027 552.523 204.255 544.481 208.942 536.624C211.803 531.862 215.053 527.748 219.807 524.5C227.602 519.169 235.917 515.156 244.345 513.563C246.687 513.856 245.254 515.61 246.648 516.091C249.953 510.442 252.634 504.558 256.85 499.322C263.812 490.801 272.481 483.473 282.292 477.817C285.62 475.862 289.725 476.179 293.026 473.929C311.53 470.262 327.081 474.899 342.439 482.778C339.291 480.029 336.753 477.848 334.247 475.627C333.29 474.707 332.045 474.07 330.638 473.782C325.831 472.968 321.051 471.91 316.117 471.563C308.504 471.029 300.774 471.112 293.021 473.984C280.869 476.871 269.93 474.385 258.807 472.241C253.438 471.172 247.763 471.022 242.052 471.799C226.051 474.011 209.988 476.093 194.586 472.979C187.725 471.593 181.751 468.759 176.127 465.45C172.79 463.474 168.91 462.416 165.179 461.145C162.528 460.242 159.732 459.624 157.675 457.836C155.618 456.048 152.244 457.163 149.297 454.986C153.129 454.416 156.096 453.636 158.982 453.586C163.892 453.496 168.761 453.591 173.516 454.602C180.323 456.083 187.185 457.682 194.607 456.893C203.306 455.938 211.823 453.663 220.37 450.885C235.126 446.096 249.151 438.464 264.553 436.225C269.523 435.529 274.485 435.357 279.337 435.712C301.212 437.178 317.716 447.332 333.835 458.207C342.874 464.307 350.122 472.146 358.828 478.557C360.391 479.716 361.31 481.566 362.736 483.351C365.391 483.41 367.146 485.19 368.923 486.928C374.293 492.13 379.148 497.765 383.443 503.782C388.571 511.056 396.304 516.399 399.769 523.623C407.336 526.477 412.264 530.513 415.47 536.236C417.491 539.823 419.352 543.503 421.348 547.125C422.226 548.768 423.212 550.419 425.928 551.198C425.885 549.029 425.323 546.96 424.279 545.131C417.272 530.698 411.414 515.71 406.744 500.271C402.895 487.205 393.109 478.38 384.96 468.298C379.388 461.402 372.179 455.993 365.215 450.372C359.159 445.485 351.28 443.683 343.195 442.398C337.283 441.465 331.322 440.618 325.283 440.151C315.466 439.37 307.45 435.234 299.077 431.739C286.525 426.512 274.414 420.65 262.643 414.282C251.538 408.325 239.743 403.432 228.045 398.346C220.617 395.115 214.331 390.107 206.283 387.679C204.903 387.257 203.667 386.433 201.853 386.966C209.882 390.061 218.033 392.944 224.377 398.142C224.165 399.481 223.228 399.952 222.344 400.476C203.245 411.786 182.778 415.903 161.792 417.314C158.423 417.556 155.895 415.296 152.33 415.856C150.226 416.112 148.127 416.575 146.071 417.236C125.717 424.349 106.25 425.149 88.4493 417.002C80.739 413.471 72.9101 409.619 70.5054 400.943C70.7055 400.925 71.1944 400.76 71.3515 400.89C79.4519 408.229 90.5328 408.69 101.903 408.302C110.034 408.02 118.272 406.204 126.347 406.587C132.078 406.855 137.314 408.341 142.653 409.691C139.851 407.54 136.085 407.218 132.902 406.172C132.265 405.404 133.503 405.053 133.289 404.57C131.85 403.219 128.651 405.71 127.786 402.879C124.615 403.835 121.356 405.576 117.748 404.977C120.536 404.057 123.291 402.829 126.105 402.271C137.165 400.055 146.666 393.924 156.652 389.062C166.208 384.408 175.813 379.847 185.866 376.632C192.251 374.588 198.667 374.402 204.999 375.207C216.172 376.659 226.414 380.116 236.723 383.536C249.989 387.939 263.14 392.588 276.923 396.028C286.992 398.507 296.644 401.842 306.815 404.022C311.596 405.049 316.066 406.819 321.365 407.031C319.654 405.596 317.686 404.351 316.268 402.694C305.444 390.06 292.131 379.642 279.94 368.197C272.003 360.755 263.06 354.212 256.009 345.973C255.495 345.369 254.443 345.119 253.571 344.846C237.812 339.925 220.65 338.157 203.137 339.651C199.304 339.956 195.46 340.798 191.622 341.372C190.806 341.482 189.847 341.766 189.041 340.24C205.519 336.562 221.654 332.536 238.497 334.143C234.588 329.755 230.115 326.636 225.73 323.47C209.846 312.07 192.755 302.156 174.997 293.093C171.171 291.135 166.875 289.804 163.178 287.681C158.181 284.673 152.202 283.049 145.85 282.974C145.06 282.968 144.35 282.424 143.458 282.081C139.909 284.146 135.932 285.525 132.358 287.87C127.521 291.044 125.865 295.916 122.975 300.067C111.929 315.913 96.6123 323.696 77.8994 323.059C61.5546 322.501 45.3139 320.86 30.5563 315.415C23.8361 312.936 17.7085 309.371 10.9075 307.067C6.18804 305.468 2.23909 303.494 1.2742 298.856C0.30931 294.217 -1.01147 289.665 1.23336 284.553C2.56766 281.485 4.94604 279.749 8.04206 278.538C16.4176 275.26 22.9422 277.882 29.1543 281.49C32.7036 283.659 35.97 286.162 38.9098 288.964C48.6239 297.753 60.4186 302.743 75.6994 300.687C79.2011 300.219 82.7772 301.004 86.9335 298.799C74.2849 294.339 60.5162 292.235 52.4535 281.397C57.3812 279.703 60.6759 282.728 65.0844 282.337C64.5198 281.28 63.4464 281.366 62.6549 281.161C57.7159 279.871 52.9582 278.086 48.217 276.527C39.2058 273.573 30.2522 269.99 24.5618 262.382C22.4912 259.619 22.8992 256.24 21.3401 253.404C21.6786 251.451 23.1814 249.909 24.6024 248.493C21.9378 244.962 17.5149 243.116 16.1047 238.708C14.8027 234.633 16.7951 228.54 21.1446 225.567C23.8095 226.3 27.0719 229.231 29.5973 233.206C27.9921 233.377 27.6428 232.183 26.8537 231.622C25.9586 230.978 25.1683 230.219 23.8524 229.098C24.8815 231.826 27.3694 232.882 28.3874 235.034C26.5886 235.677 26.3094 234.025 24.2162 234.035L34.8338 242.223L34.4498 242.945L25.915 239.131C26.985 241.232 29.4313 241.048 30.0599 243.141L21.8597 240.477L21.4892 241.044C24.7714 242.621 27.9716 244.323 31.3468 245.747C34.7221 247.171 38.924 246.492 43.0774 248.423C37.6758 248.218 32.3876 247.51 27.2928 246.31C27.1282 247.441 27.3678 248.539 27.9755 249.438C36.6848 250.272 45.3603 251.42 53.4843 254.154C58.7083 255.912 64.7576 256.203 68.9553 259.919C67.3286 257.333 64.3571 256.321 61.7215 254.923C58.8264 253.383 56.0771 251.624 53.0895 250.222C50.102 248.82 49.0535 245.777 46.8259 243.637C54.8184 249.432 64.1726 253.421 72.5638 258.686C70.6637 255.522 66.4242 254.641 64.3357 251.68C66.5223 252.466 68.5206 253.563 70.2643 254.937C73.8852 257.384 78.2178 258.926 82.9078 259.437C72.681 254.141 61.1121 250.508 53.9175 241.606C50.5358 240.858 50.5358 240.858 43.05 230.724C43.1565 233.51 46.2697 234.623 46.8414 238.083C41.656 233.565 38.8704 228.482 35.8512 223.501C36.455 226.006 38.1462 228.108 37.7776 230.594C39.9922 233.103 42.0113 235.377 44.0297 237.665C40.1628 235.714 38.2418 231.741 33.9217 230.202L41.4826 238.103C36.8859 236.357 34.6395 232.381 30.6223 228.789C31.2773 231.113 33.0823 231.61 33.3595 233.914C29.6106 230.883 26.2174 227.511 23.2205 223.838C24.4292 219.7 21.2601 215.633 25.9507 211.252L30.0407 209.496C30.9888 208.635 29.4055 207.93 30.8055 207.064C32.2694 207.84 33.086 206.193 34.3536 205.619C41.3352 202.466 48.3595 199.098 55.5404 196.776C59.4559 195.511 63.8822 195.923 67.7518 197.208C64.8648 195.258 61.4581 194.021 57.636 195.427C50.519 198.033 45.7344 195.804 41.4585 191.826C40.5013 190.935 39.2672 190.294 38.1998 189.491C37.2192 188.752 35.984 187.913 36.1523 186.657C36.8753 181.102 34.3278 176.873 31.6067 172.892C32.2002 170.729 33.4175 168.735 32.0113 167.101C30.7097 165.581 30.048 164.015 30.9407 161.921C37.2308 155.917 43.4134 155.066 50.6862 159.252C52.1608 158.051 50.9643 156.335 52.5114 154.844C53.5924 154.133 55.0096 154.085 56.8192 154.477C59.3786 160.169 66.6725 161.464 71.1885 165.645L66.603 161.006C73.0293 161.937 76.5338 165.78 80.6812 168.83C77.5755 164.762 73.7208 161.251 69.2545 158.423C70.853 156.144 72.2148 156.598 73.4972 157.198C76.7023 158.713 80.0302 160.081 82.9905 161.874C86.9715 164.251 91.8876 164.631 96.2598 166.12C110.646 171.033 124.793 176.53 134.066 187.784C140.177 195.197 145.733 203.077 148.746 212.484C150.849 219.121 152.864 225.791 154.522 232.562C156.316 239.866 155.258 247.446 153.713 255.146L153.172 246.766C152.206 253.47 151.93 260.092 149.967 266.731C149.873 267.062 149.924 267.419 149.8 267.743C146.327 277.041 147.948 277.046 155.853 280.451C173.701 288.145 191.823 295.55 207.473 306.234C217.401 313.018 227.791 319.371 236.711 327.329C240.933 331.091 245.985 334.115 250.874 337.226C252.554 338.293 254.557 339.209 257.289 338.119C258.675 337.571 260.069 338.576 261.333 339.142C271.067 343.777 282.141 345.748 292.959 349.236C292.341 345.084 290.16 342.277 288.049 339.454C282.542 332.058 275.04 326.887 266.313 322.762C249.044 314.597 231.978 306.14 218.006 293.8C210.783 287.417 204.001 280.679 199.138 272.556C196.545 268.226 194.761 263.331 194.926 257.911C195.017 254.954 194.164 252.751 191.495 251.046C183.812 246.157 179.408 238.437 173.037 232.419C167.332 227.05 163.53 220.179 162.019 212.512C160.653 206.077 160.815 199.263 162.495 192.498C164.422 184.646 162.209 177.884 159.276 171.328C158.275 169.079 156.953 166.979 155.756 164.739C157.641 164.027 157.798 165.125 158.244 165.78C163.708 173.782 168.288 182.242 170.956 191.656C172.391 196.716 175.485 200.741 179.216 204.352C183.154 208.156 187.377 211.756 191.22 215.661C198.652 223.189 209.282 226.555 218.613 231.614C229.897 237.71 242.273 242.183 253.337 248.604C268.129 257.191 278.988 268.794 286.717 283.265C292.588 294.255 298.924 305.003 304.042 316.387C309.288 328.057 314.437 339.809 316.729 352.629C317.59 357.515 320.1 361.232 323.148 364.809C325.264 367.297 327.183 369.972 329.585 372.21C334.499 376.777 336.127 382.82 337.412 389.089C338.138 392.74 339.039 396.342 339.747 400.01C340.188 402.059 341.294 403.863 342.933 405.205C346.799 408.657 350.257 412.473 353.263 416.603C355.915 420.063 359.363 422.919 363.413 425.012C366.277 426.561 368.81 428.567 371.8 430.596C371.864 425.806 370.216 421.754 369.133 417.681C364.399 399.978 358.95 382.509 353.045 365.232C351.485 360.675 348.443 357.567 345.428 354.149C339.537 347.475 336.875 339.054 334.27 330.788C331.018 320.459 327.378 310.42 320.866 301.7C308.503 285.104 294.674 269.675 278.527 256.096C271.98 250.585 267.032 243.777 261.908 237.18C261.079 236.037 260.175 234.945 259.199 233.909C244.639 219.454 233.096 202.641 218.268 188.388C216.403 186.534 213.735 185.19 212.834 181.979C216.033 182.353 217.574 184.306 219.369 185.636C230.657 193.772 242.624 201.147 255.194 207.716C268.279 214.646 281.127 222.263 290.623 233.376C296.688 240.474 303.275 247.24 307.23 255.643C311.805 265.338 315.373 275.52 319.571 285.409C322.208 291.606 323.956 298.152 326.387 304.422C327.618 307.373 329.266 310.123 331.294 312.611C332.254 308.465 331.033 304.967 329.289 301.867C322.273 289.37 318.164 275.49 312.23 262.482C306.378 249.659 299.437 237.403 292.48 225.148C288.744 218.563 284.886 212.029 281.383 205.306C277.563 197.991 272.208 191.584 268.077 184.472C261.55 173.235 251.952 164.288 243.942 154.154C240.839 150.229 236.75 148.271 232.484 146.193C215.61 149.262 198.611 148.559 195.529 144.476C199.17 143.941 202.248 145.251 205.903 144.546C203.38 143.767 200.907 142.888 198.324 142.259C197.374 142.151 196.498 141.835 195.767 141.336C188.828 135.237 180.506 130.43 175.008 122.97C171.381 118.063 169.343 112.233 165.504 107.453C159.984 100.589 154.549 93.6564 149.049 86.7812C148.764 86.3271 148.364 85.9492 147.877 85.6738C147.391 85.3983 146.828 85.2319 146.229 85.1861C157.963 98.6556 165.865 113.891 174.313 128.806C166.554 117.865 160.466 105.847 151.76 95.5078C157.788 105.712 163.526 116.078 170.702 125.632C167.887 124.847 165.727 123.668 164.614 121.094C160.732 112.092 154.72 104.338 148.219 96.9491C147.37 95.7786 146.134 94.9019 144.657 94.4217C156.256 104.906 161.183 119.729 170.989 131.408C170.373 132.055 169.955 131.222 169.426 131.445C166.569 127.449 163.709 123.448 160.847 119.444C163.293 123.712 164.89 128.552 169.459 131.391C170.422 132.671 171.382 133.945 172.41 135.279C170.96 135.839 170.932 134.149 169.626 134.617C170.802 136.706 173.086 137.642 174.666 138.814C179.222 138.079 180.189 141.69 183.347 142.69C181.035 144.664 179.463 143.702 177.998 143.333C170.906 141.517 166.147 136.896 161.268 132.429C154.572 126.31 151.028 118.169 146.385 110.754C139.676 99.9468 129.783 92.4428 117.832 86.7685C112.307 84.1523 106.406 82.5345 100.573 82.3866C98.4016 80.2533 99.4613 78.2917 99.8523 76.1261C105.862 71.2178 112.481 67.6155 120.488 67.5768C118.061 69.124 114.843 69.0415 112.476 71.6498L118.208 74.0151C117.646 72.1445 115.85 72.0555 114.691 71.2124C118.512 68.854 119.502 72.6075 122.013 72.8541C122.165 71.5026 119.983 71.3465 120.706 69.5572C123.841 70.777 125.686 73.1662 127.962 75.7087C127.504 73.0001 125.445 71.7662 124.156 69.2872C133.757 70.3832 134.633 78.9311 140.772 82.8438L133.652 72.6913L134.172 72.2884L137.07 74.2921C135.825 72.3874 135.037 71.1911 134.246 69.989C139.549 72.3695 141.149 77.3778 144.503 81.2498L139.473 71.8341L140.357 71.3106C143.036 74.8858 145.612 78.5305 147.99 82.326C146.503 78.1403 144.364 74.2403 141.631 70.7332C140.14 68.6944 138.068 68.1547 135.246 68.1775C130.269 68.2226 125.355 67.798 120.412 67.5657C124.705 65.4202 128.975 66.2923 133.238 66.0383C135.923 65.8744 138.44 66.8554 141.597 66.0036C140.045 59.5298 140.32 52.841 140.699 46.1184C140.813 44.1378 141.116 42.5436 143.178 41.346C153.515 49.3367 160.135 60.1405 167.842 69.7724C167.821 69.0453 166.548 68.2999 167.424 67.042C168.899 66.365 168.579 68.5663 170.084 68.0281C165.96 61.3706 161.895 54.7921 156.469 49.0879C157.119 51.4658 159.924 52.6253 160.032 55.7576C156.796 52.4653 153.933 49.3497 150.836 46.4485C148.641 44.4017 146.713 42.005 143.21 41.3883C142.881 39.3487 142.373 37.3014 142.887 35.3655C143.787 34.0211 144.255 35.6834 145.279 34.671C143.417 31.4129 143.375 27.8317 146.538 24.1928C152.676 21.7852 158.329 24.9833 158.771 31.688C159.19 37.9248 162.497 42.7079 165.432 47.7268C166.18 48.8746 166.999 49.9772 167.887 51.0302C165.969 47.4397 163.712 43.5579 161.804 39.5116C160.662 37.0945 159.653 34.5687 159.927 31.6095C160.2 28.6504 158.186 26.4032 156.384 23.962C161.292 24.2938 164.412 27.0574 168.594 28.7148C170.057 30.3405 171.188 32.8822 174.566 33.1007C174.659 33.8484 174.749 34.6053 174.842 35.3681C177.395 34.6317 179.778 33.7874 181.001 31.6572C185.268 30.7733 187.53 33.7147 191.18 34.3423C191.781 34.9441 191.447 36.1856 191.65 37.1552C192.54 38.0018 192.923 36.4756 193.753 36.7702C194.752 37.3297 194.111 38.521 194.347 39.5177L196.226 38.2404C199.509 41.0133 200.329 45.9211 205.133 46.7293C208.768 49.4911 210.572 53.2607 213.513 56.1793C210.092 51.4126 207.815 46.0355 203.248 41.8737C199.622 38.5898 196.283 35.072 192.041 32.3536C187.8 29.6352 183.479 27.5717 177.386 28.8032C172.808 29.7276 166.083 25.766 164.657 22.1126C173.047 5.07815 187.408 2.49475 199.997 13.5724C202.38 12.4027 203.91 9.94627 206.614 9.19614L208.995 8.52974C210.761 8.56121 211.032 9.65717 212.054 10.5881C212.453 7.55409 211.949 5.33462 210.001 3.7985C210.053 3.16856 210.251 2.53708 210.582 1.94559C210.912 1.3541 211.368 0.815999 211.919 0.366658C215.274 -0.62073 217.386 0.466673 218.794 2.66071C224.821 12.0675 230.815 21.4925 236.774 30.9356C242.705 40.4014 248.66 49.9132 256.567 58.0206C269.614 71.3129 272.257 87.3934 267.002 106.106C263.95 117.195 257.24 127.613 247.823 135.881C245.367 138.078 242.374 139.53 238.855 141.668C242.906 143.196 244.08 138.271 246.9 138.95C246.949 139.042 247.032 139.198 247.038 139.209C241.965 144.658 244.961 148.891 247.487 153.146C252.072 160.813 258.351 167.28 264.136 174.099C272.93 184.472 279.35 196.246 286.374 207.675C291.494 216.016 296.17 224.542 300.788 233.137C309.312 249.096 317.597 265.146 323.898 282.197C326.177 288.363 330.011 293.854 332.144 300.254C332.252 296.15 332.443 292.038 332.454 287.949C332.504 278.22 333.905 268.271 331.108 259.007C329.29 253.063 326.752 247.402 323.538 242.117C321.31 238.399 319.698 234.346 318.747 230.071C317.918 226.408 315.241 223.622 313.897 220.19C311.509 214.082 310.323 207.442 307.032 201.706C306.866 201.396 307.078 200.876 307.099 200.193C309.639 200.955 310.11 203.015 310.724 204.688C314.438 214.769 320.121 223.77 326.597 232.228C335.982 244.493 342.681 258.082 345.97 273.161C349.094 287.456 356.207 299.857 361.576 313.1C366.712 325.76 372.825 337.957 377.294 350.957C380.239 359.515 380.515 368.627 382.63 377.317C385.248 388.029 388.778 398.452 390.583 409.428C391.121 412.677 391.554 415.961 391.803 419.276C391.882 420.643 392.277 421.941 392.964 423.086C392.717 411.736 390.355 400.962 387.245 390.41C384.157 380.069 381.93 369.431 380.579 358.58C379.837 352.508 380.786 346.279 380.507 340.159C380.057 329.493 379.696 318.832 379.058 308.207C378.23 294.362 376.029 280.763 375.644 266.88C375.447 259.668 374.813 252.556 374.208 245.495C373.793 240.806 373.709 235.919 371.743 231.616C371.308 230.506 371.106 229.307 371.145 228.073C370.971 222.148 369.69 220.618 361.609 218.717C351.299 216.294 342.462 212.028 336.505 203.89C331.003 196.592 326.184 188.841 322.091 180.703C318.797 173.876 317.044 166.358 316.926 158.542L314.877 149.092ZM238.701 82.5755C237.104 86.7884 239.001 90.5374 238.619 94.5519C239.219 90.5023 239.231 86.4733 238.655 82.5707C238.923 78.7551 238.295 75.0455 236.812 71.689C237.08 75.4151 237.366 79.1758 238.701 82.5755ZM258.736 538.852C255.559 540.402 253.205 542.937 250.428 544.974C250.699 543.205 252.23 542.143 253.547 540.989C258.056 537.023 262.591 533.087 267.11 529.137C260.24 534.283 252.986 539.17 247.43 546.745L249.539 545.781C249.527 547.035 247.65 547.861 247.964 550.167C250.543 544.861 255.977 542.97 258.684 538.836C261.811 536.731 264.695 534.317 267.271 531.65C263.906 533.443 260.972 535.919 258.736 538.852ZM346.903 305.816C347.834 311.602 351.187 316.176 354.189 320.93C351.232 316.13 350.287 310.351 347.075 305.68C345.915 300.791 344.76 295.9 343.609 291.006L342.315 291.432C343.905 296.209 344.245 301.38 346.9 305.81L346.903 305.816ZM367.599 122.864C368.023 125.968 368.435 129.063 368.889 132.32C370.702 129.706 368.748 127.471 369.481 124.916C370.69 125.54 369.691 127.174 371.012 127.635C372.029 125.216 371.902 122.899 372.26 120.426L369.295 120.703L368.206 122.577C367.828 121.117 368.219 119.114 365.408 119.206C363.795 122.504 365.822 124.892 366.261 128.12C367.429 126.197 365.925 125.346 366.228 124.128C366.395 123.411 366.046 122.298 367.596 122.859L367.599 122.864ZM366.729 212.275L368.589 213.039C366.364 214.457 364.871 213.216 363.211 212.5C358.566 210.5 356.047 206.389 352.005 202.98C354.816 210.11 358.694 214.522 364.429 217.432C367.707 219.1 370.811 218.313 373.048 215.265C366.966 218.27 358.272 214.828 355.852 208.398C357.874 210.006 359.781 211.645 361.821 213.139C366.613 216.642 368.191 216.486 373.508 212.213C373.938 211.929 374.394 211.686 374.869 211.486L378.429 211.489C380.234 209.957 380.18 208.103 381.335 206.467C378.238 206.416 377.97 210.826 374.555 209.72C372.638 206.704 368.94 204.84 367.708 201.06C366.531 197.466 364.248 194.402 362.348 191.157C360.364 187.786 359.566 183.871 359.027 179.913C358.53 176.25 357.947 172.604 357.41 168.963C356.545 174.039 358.659 178.522 357.95 183.774C356.785 182.757 357.222 181.069 355.349 180.312C356.443 185.635 359.072 189.739 360.839 194.259C358.621 190.925 355.652 188.117 353.524 184.706L357.924 192.944C351.468 185.162 348.978 175.098 342.329 167.464C348.545 177.693 352.446 189.203 359.696 198.879C352.177 190.402 347.25 180.311 341.303 170.847C342.363 173.91 343.67 176.871 345.214 179.708C350.047 187.937 355.109 196.006 361.264 203.387C357.536 201.99 356.359 198.476 354.288 195.795C349.753 189.925 345.712 183.718 341.465 177.65C342.941 181.475 344.983 185.039 347.541 188.256C351.93 193.754 355.349 199.909 360.144 205.153C357.465 204.575 356.526 202.374 355.111 200.642C352.295 197.221 349.534 193.771 346.755 190.337C350.801 197.288 355.268 203.932 361.004 209.677C362.38 211.219 364.423 212.145 366.726 212.269L366.729 212.275ZM357.417 119.716C357.874 120.948 358.297 122.133 358.845 123.649C359.558 122.005 358.419 120.871 359.363 119.577C360.954 120.772 360.082 122.937 361.526 125.067C361.118 119.164 361.103 114.011 359.809 109.001C360.205 111.234 358.002 112.544 357.146 114.249L356.837 118.696C356.294 118.662 355.74 118.278 355.031 119.063C355.653 121.537 356.299 124.123 356.956 126.711L357.319 126.62C357.343 124.309 357.375 122.005 357.414 119.71L357.417 119.716ZM92.0916 215.419C96.0323 218.032 97.4012 222.396 100.005 225.96C98.6958 223.019 97.2578 220.146 95.6324 217.382C94.9526 216.224 94.1821 214.863 92.0821 215.483C86.5019 211.028 81.852 205.663 75.6693 201.766C83.1529 209.686 90.8002 217.438 96.1561 226.908C95.0869 224.186 93.6927 221.674 92.3908 219.106C91.8023 217.988 90.7439 216.907 92.0885 215.413L92.0916 215.419ZM236.305 60.2124C238.061 60.9949 238.287 62.7275 238.879 64.2128C241.158 69.9363 244.88 74.9404 246.789 80.8544C243.888 68.2046 226.936 38.679 219.96 32.9539C225.857 42.3565 231.905 50.8296 236.36 60.2495L233.499 58.4472L237.056 65.1054L237.464 64.8873L236.305 60.2124ZM375.753 118.501C375.405 118.111 375.05 117.725 374.702 117.335C375.252 122.033 371.766 126.819 372.842 131.863C374.939 127.11 375.435 122.784 375.749 118.445C377.569 121.164 374.62 125.434 377.722 127.802C378.99 127.198 378.324 125.656 379.816 125.273C380.493 127.769 378.684 130.308 379.501 132.869L380.654 130.607C382.137 132.975 380.26 135.927 381.574 138.371C383.31 135.546 383.351 135.509 383.099 133.923C381.914 126.653 379.6 119.709 376.222 113.289C373.892 108.796 369.158 107.367 364.796 109.727C367.082 110.536 369.229 111.346 371.435 112.088C374.649 113.095 376.309 115.089 375.75 118.496L375.753 118.501ZM422.664 477.819C422.776 477.375 423.037 476.881 422.971 476.495C421.124 465.129 422.12 453.373 422.501 441.695C422.521 441.094 422.888 440.012 421.501 439.97C417.26 453.311 416.487 466.107 422.71 477.824L422.294 481.531L419.046 484.684L424.57 495.024L425.825 494.59C423.568 489.268 424.15 483.286 422.661 477.813L422.664 477.819ZM129.94 260.195C128.822 257.315 126.468 255.092 123.357 253.979C126.001 255.653 126.803 258.939 129.961 260.154C132.898 263.015 135.302 266.42 136.327 270.221C137.061 272.953 138.235 274.725 140.872 275.798C139.787 277.19 138.897 278.389 140.135 279.691C142.106 279.828 143.583 278.714 144.918 277.594C145.325 276.424 143.628 277.013 143.912 275.843C145.893 274.231 146.444 272.069 146.516 269.453C144.898 270.649 145.255 272.496 142.636 273.438C138.739 263.816 131.956 255.883 124.526 248.407C127.325 252.076 130.124 255.749 132.923 259.428L132.587 259.733L130.142 258.085L129.94 260.195ZM340.273 500.792C338.353 501.633 336.378 501.684 334.399 501.892C328.826 502.461 323.759 504.762 318.808 507.444C321.847 506.765 324.628 505.243 327.613 504.283C332.833 502.595 337.919 503.047 343.05 502.078C350.313 503.854 355.518 509.048 363.492 510.438C358.219 503.84 349.753 501.628 342.652 497.158C317.989 492.405 298.947 506.851 292.232 521.226C293.742 520.42 294.489 519.215 295.316 518.013C300.957 509.657 309.618 503.146 319.53 499.807C326.925 497.216 334.059 497 340.261 500.769L340.273 500.792ZM232.892 114.38C233.993 106.046 232.455 98.2059 231.24 90.2825C229.915 81.6792 226.709 73.6152 226.337 64.7321C228.476 71.6523 229.875 78.8209 231.931 85.7487C233.95 92.5413 233.838 99.9263 236.006 106.654C235.245 103.871 235.93 100.832 235.576 98.0232C234.516 89.8024 231.968 82.0369 230.39 73.9748C229.391 68.8303 228.306 63.6876 226.052 58.977L226.077 59.023C226.013 54.745 223.71 51.1385 223.509 47.2586C220.902 44.1468 217.203 42.0024 217.939 37.7326C227.085 45.4737 230.235 56.6909 234.502 68.3302C235.254 64.9085 234.167 63.0527 233.234 61.1436C232.302 59.2344 230.868 57.564 230.66 55.5706C230.168 50.7382 227.4 47.1592 224.994 43.3271C222.864 39.9609 219.68 37.1277 219.032 32.9995C218.053 26.7957 214.359 21.8282 212.491 16.04C212.394 19.9681 214.907 22.8716 215.419 26.6448C216.576 35.3598 216.487 44.3785 219.205 52.7401C224.43 68.5305 228.492 84.7518 231.365 101.306C232.091 105.644 231.738 110.189 232.971 114.397C232.814 118.8 233.172 123.141 234.038 127.346C234.773 122.858 234.38 118.42 232.889 114.374L232.892 114.38ZM387.544 128.64C385.421 131.738 386.207 135.158 384.386 138.493C381.598 143.617 380.279 149.141 380.565 154.489C380.807 158.79 382.018 162.906 382.645 167.142C383.498 172.881 384.408 178.627 383.327 184.691C381.236 176.209 382.845 166.762 379.012 158.686C382.074 173.93 381.789 189.588 379.005 206.05C380.228 204.658 381.167 203.551 382.74 203.664C382.616 201.515 383.939 199.834 384.254 198.033L385.667 193.018C388.404 184.586 386.408 176.74 385.687 168.744C385.536 167.119 384.687 165.741 383.886 164.308C382.238 161.371 382.178 157.837 381.918 154.402C382.617 154.664 383.135 155.183 383.362 155.846C384.285 160.684 387.248 164.757 387.773 169.734C387.853 170.474 387.248 172.289 389.418 171.75L389.362 171.743L390.498 178.52L391.632 175.241L393.355 186.652C393.363 180.391 392.984 174.184 392.221 168.06C392.107 167.028 391.192 166.394 390.771 165.607C388.01 160.437 384.149 155.78 383.519 149.493C384.075 150.289 384.637 151.111 385.356 152.13C385.522 149.723 383.681 148.159 384.506 145.348C388.104 149.776 388.302 155.37 392.409 159.948C389.495 153.33 388.089 147.178 386.322 141.594C386.776 140.185 387.957 141.267 388.372 140.078C388.268 139.196 388.146 138.117 388.08 137.583C388.303 135.987 389.755 136.349 390.104 135.446C389.975 133.846 390.445 132.059 389.316 130.698C391.031 131.518 391.12 133.567 392.923 134.93C392.2 131.284 390.239 128.381 390.849 124.629C392.653 125.453 392.15 127.523 393.784 128.371C394.369 125.799 391.393 123.585 394.408 120.897C396.048 123.115 398.607 124.517 399.203 127.352C399.594 124.351 397.338 122.027 397.757 119.012C399.257 118.89 399.103 120.206 400.093 120.423C399.96 118.537 399.131 117.378 397.052 116.989L394.024 117.868C392.888 119.046 391.846 120.291 390.907 121.593C389.552 123.838 386.281 125.622 387.54 128.634L387.544 128.64ZM192.564 126.27C196.911 126.223 198.384 129.52 200.517 131.828C206.335 138.12 212.909 143.321 222.425 145.01C223.427 145.264 224.505 145.322 225.593 145.178C229.581 144.458 233.056 142.174 237.237 141.21C237.375 139.83 239.087 139.27 239.835 138.035C238.656 134.796 240.598 131.507 241.219 127.971C237.149 131.68 237.281 136.365 234.898 140.252C233.772 138.505 235.768 136.494 234.336 135.074C228.163 137.096 221.698 136.898 216.359 134.523C205.467 129.945 196.997 122.537 190.663 113.478C185.396 106.056 180.634 98.3099 176.399 90.2773C174.547 86.9608 172.192 83.9396 169.394 81.2892C167.399 79.2903 165.426 77.2654 164.271 76.1026C156.25 73.4464 151.206 67.4423 142.448 68.1853C142.597 69.693 143.219 70.2688 144.631 70.5044C146.849 70.8989 149.005 71.4584 151.077 72.1778C153.366 72.9266 156.025 73.4339 157.669 74.8592C159.413 76.3718 160.394 78.6832 161.313 80.8948C163.005 84.9458 164.94 88.8961 166.771 92.8802L167.395 92.5912C165.266 87.592 163.141 82.5986 160.777 76.9281C167.697 81.5166 167.703 81.528 166.874 82.0074C165.624 82.2542 165.482 80.5953 163.995 81.0204L166.198 85.145L166.603 83.7101C171.988 87.2429 173.705 92.831 175.817 98.1269C179.586 107.588 182.255 117.578 187.903 126.139C188.737 127.406 189.626 128.645 190.557 129.846C191.487 131.047 192.481 132.156 193.45 133.299C188.918 126.86 185.92 119.644 182.732 112.546C183.716 113.903 184.603 115.322 185.388 116.798C187.444 120.204 189.283 123.763 192.638 126.261C194.147 130.084 197.735 132.251 200.67 134.929C197.81 132.13 196.236 128.363 192.561 126.265L192.564 126.27ZM439.452 465.684C442.086 459.336 442.424 452.208 449.369 447.546C449.145 446.521 447.79 447.407 447.748 446.263C450.739 438.537 454.266 430.635 455.497 422.446C456.704 414.49 457.653 406.526 458.721 398.572C457.205 399.662 457.417 400.797 457.269 401.91C456.104 410.469 456.018 419.214 451.085 427.364C447.872 432.662 447.654 438.279 445.396 443.694C441.311 453.548 435.463 463.03 432.843 473.186C431.464 478.56 428.931 483.871 429.065 489.359C429.34 498.715 430.014 507.999 430.889 517.249C431.043 518.864 431.953 520.453 430.662 522.686C423.997 513.842 418.236 504.89 410.498 497.379C412.361 505.777 416.652 513.024 418.982 521.202C422.793 534.606 428.993 547.081 435.763 559.296C434.712 563.091 437.047 565.351 439.653 568.396C440.141 566.191 440.149 563.98 439.678 561.893C438.589 556.302 437.375 550.74 436.189 545.179C434.001 534.961 434.195 524.24 432.785 513.858C431.642 505.891 431.216 497.763 431.511 489.552C431.804 484.277 432.913 478.963 434.804 473.763C435.352 478.063 433.526 482.568 434.675 486.798C434.758 481.748 436.611 476.704 436.771 471.65C438.831 469.973 438.363 467.624 439.455 465.674L439.452 465.684ZM357.761 370.377C359.96 377.768 362.156 385.153 364.351 392.538C368.249 405.777 372.248 418.978 375.961 432.279C377.98 439.515 384.31 443.392 389.381 449.219C389.512 448.497 389.585 447.774 389.6 447.057C387.627 433.934 386.014 420.699 383.57 407.71C380.599 391.834 370.975 379.955 357.765 370.368L357.761 370.377ZM337.563 117.384C336.891 122.676 340.047 126.749 340.247 131.708C338.084 127.429 335.649 123.362 333.337 119.214L334.586 116.331C336.627 115.241 338.954 115.896 340.767 114.314C339.827 113.34 338.889 112.615 337.52 112.623C334.113 113.497 332.432 115.931 330.784 118.281C330.611 120.692 334.132 121.75 332.461 124.695C331.072 124.108 330.37 122.696 328.134 122.473C330.042 124.407 331.545 125.96 333.077 127.519L332.655 127.892L327.649 124.297C330.879 128.479 334.348 132.452 335.431 138.556C332.909 135.472 333.284 131.425 328.945 129.246C339.068 144.595 341.35 162.685 350.887 177.394C342.887 163.614 340.63 147.519 335.063 132.727C339.593 136.296 342.86 140.775 343.299 146.507C343.634 151.637 347.525 154.927 348.717 159.532C347.267 153.757 345.815 147.976 344.31 141.95C346.689 144.57 346.249 148.298 349.22 151.142C347.829 147.129 346.668 143.762 345.418 140.162C348.046 138.337 345.871 135.689 347.61 133.084L350.127 141.922C350.364 138.354 349.4 135.059 350.004 130.542L353.147 139.585C353.72 133.896 352.516 128.499 353.51 122.585C350.585 121.283 352.149 117.679 349.959 115.134L350.066 123.406C349.028 121.79 348.478 120.776 347.186 121.009C345.559 123.694 347.163 125.961 347.26 128.434C345.697 128.568 345.879 127.208 345.008 126.92C344.614 127.655 345.886 128.252 344.541 129.318C343.404 126.322 342.278 123.446 341.074 120.176C340.464 123.455 342.55 125.575 342.059 128.34C340.538 124.673 339.04 121.018 337.566 117.375L337.563 117.384ZM308.623 388.99C303.898 380.143 299.76 371.07 298.222 360.432C286.421 358.082 276.585 351.979 264.885 349.132C280.581 361.408 293.204 376.411 308.6 388.995L308.623 388.99ZM126.453 279.55C126.187 282.113 124.274 282.493 122.15 282.217C120.714 282.041 119.329 281.707 118.025 281.223C110.494 278.355 102.994 275.469 95.5265 272.566C93.7332 271.878 92.21 270.712 89.3919 270.364C92.4646 273.153 96.5351 273.8 99.0458 276.978C93.2125 275.552 89.7238 271.428 83.6263 270.572C90.2552 275.5 97.9405 278.314 104.195 282.999C98.0553 283.325 92.8547 281.414 86.8668 279.88C88.3593 281.364 90.3451 281.3 91.2531 282.705C89.1415 283.664 87.4732 282.325 85.0163 283.128C89.8462 284.934 95.4846 283.997 99.6536 287.611C100.156 287.733 101.814 287.121 102.935 288.073L101.635 289.306C112.138 288.946 122.051 287.631 131.798 284.448C132.382 282.267 132.244 280.717 130.714 279.489L126.453 279.55ZM305.129 369.679C304.143 371.565 304.756 372.5 305.067 373.508C307.799 382.437 312.974 389.833 320.024 396.073C326.789 402.058 334.546 407.085 340.067 414.164C340.372 414.555 340.844 415.225 342.054 414.446C326.9 401.726 319.914 383.099 305.094 369.661L305.129 369.679ZM103.26 301.648L89.5589 312.718C95.2592 309.998 99.3199 305.289 104.635 302.11C99.5341 308.571 92.7563 313.432 86.176 318.483C93.2541 315.1 98.7231 309.787 104.872 305.173L101.041 310.262C103.883 308.788 105.182 305.835 108.612 304.349C107.421 307.555 104.038 308.882 102.44 312.439L111.081 303.946C110.192 306.03 108.314 307.639 107.616 310.456C111.799 306.058 114.936 301.798 118.976 298.164C118.713 295.624 117.491 294.467 114.576 295.574C111.214 296.86 107.759 297.546 104.334 298.468C100.304 299.55 96.0084 300.006 92.2692 302.697C94.6925 302.732 96.7932 301.344 99.3013 300.735C98.1201 302.666 95.7294 302.643 94.6463 304.61C97.7943 303.726 99.8854 301.501 103.26 301.648ZM168.572 58.8454C175.075 73.0489 184.704 85.3612 191.1 99.4811C194.642 107.306 200.132 113.951 204.387 121.343C206.282 124.628 208.5 127.734 211.802 129.935C213.524 131.098 215.418 131.548 217.578 129.7C207.646 122.091 201.143 112.126 193.65 102.911C195.911 103.675 196.568 105.739 198.372 106.939L168.572 58.8454ZM215.35 381.898C222.697 383.356 229.687 385.818 237.244 386.868C229.406 383.376 220.555 381.82 215.594 379.456C201.891 378.359 191.196 377.721 180.236 380.105C183.538 380.918 187.025 380.422 190.425 380.436C195.837 380.499 201.203 380.542 206.254 381.927C214.288 384.134 222.355 386.286 230.414 388.456C234.866 389.652 239.321 390.839 243.78 392.016C234.876 387.609 224.63 385.765 215.398 381.872L215.35 381.898ZM372.644 436.466C384.127 452.168 394.953 468.266 405.122 484.76C402.013 479.088 399.549 473.131 397.014 467.175C398.188 466.851 398.101 468.751 399.951 467.533C391.64 456.541 383.476 445.514 372.691 436.44L372.644 436.466ZM226.142 123.501C222.581 122.449 219.674 121.573 217.681 119.005C214.923 115.479 213.051 111.451 210.534 107.803C205.912 101.131 199.775 95.5192 195.661 88.4722C193.922 85.495 192.508 82.2259 189.539 80.039C196.165 91.7399 203.208 103.174 211.553 114.621C210.414 110.23 206.639 108.075 205.717 103.893C207.745 104.775 208.417 106.262 209.268 107.594C212.253 112.232 213.599 117.715 216.861 122.234C219.4 125.744 222.14 128.843 226.793 129.008C228.146 129.364 227.183 130.868 228.614 130.65C229.016 130.145 229.284 129.574 229.395 128.988C229.506 128.403 229.455 127.822 229.247 127.299C227.818 126.357 226.76 125.034 226.19 123.475L226.142 123.501ZM368.47 172.085C369.103 174.908 369.652 177.361 370.142 179.816C370.632 182.272 371.191 184.743 371.476 187.226C371.745 189.563 373.376 191.764 371.54 194.974C368.738 191.709 368.021 187.993 366.782 184.609C365.563 181.295 364.483 177.914 363.334 174.57C366.24 185.364 367.464 196.871 374.473 206.064C376.621 203.683 376.58 201.364 376.52 198.96C376.396 194.308 373.427 190.681 372.901 186.177C372.293 180.912 371.553 175.681 370.833 170.173C370.246 171.188 369.652 171.86 368.517 172.06L368.47 172.085ZM416.065 150.405C414.651 151.213 414.549 152.397 414.122 153.481C411.846 159.223 413.963 165.38 409.408 170.981C408.498 172.109 408.672 174.269 409.313 175.942C410.266 175.189 411.513 175.151 412.119 174.156C412.364 173.109 412.578 172.167 412.818 171.094C413.993 171.803 412.922 173.254 414.237 173.866C414.313 172.075 414.379 170.43 414.477 168.569L416.012 169.329C418.159 162.659 414.556 156.897 416.112 150.38L416.065 150.405ZM205.945 260.547C213.385 267.272 222.352 272.339 231.837 276.473C244.097 281.672 255.838 287.676 266.979 294.444C267.832 294.977 268.532 295.829 270.295 295.855C250.618 281.201 225.591 274.538 205.992 260.521L205.945 260.547ZM312.382 92.9337C311.011 90.6459 311.528 87.3571 307.795 87.1289C307.045 88.9024 308.456 89.9063 307.605 91.2102C307.119 91.6101 305.966 90.8599 305.989 92.2134L310.644 100.928C311.41 100.069 310.041 99.3896 311.403 98.4849L315.594 108.474C315.491 104.025 313.272 100.854 312.885 97.1174C315.442 99.6945 314.997 103.624 317.188 106.352C316.339 101.275 314.081 96.6556 314.023 90.7503L312.382 92.9337ZM147.559 259.865C148.221 245.748 140.736 234.927 134.255 223.695C135.795 229.444 140.19 234.118 139.332 240.321C141.253 241.684 142.749 243.471 143.707 245.548C144.666 247.626 145.063 249.942 144.869 252.324C144.59 255.202 145.573 257.903 147.604 259.834L147.559 259.865ZM364.698 331.059C359.228 319.066 354.005 306.948 349.548 294.413C349.506 303.879 358.264 325.562 364.698 331.059ZM401.871 473.567C408.7 484.436 418.15 493.417 425.939 503.611C419.524 492.508 411.44 482.408 401.885 473.56L401.871 473.567ZM168.024 90.9039C174.062 104.27 178.198 117.596 186.807 128.688C181.996 118.174 175.342 108.534 172.542 97.0705C174.588 99.4111 174.611 102.81 177.251 105.756C174.899 99.1266 173.236 93.0667 169.104 88.1784C169.693 89.429 170.282 90.6795 171.117 92.471L168.024 90.9039ZM248.645 77.7808C243.382 58.7282 230.564 43.8003 219.765 27.7419C230.049 44.0311 241.95 59.4194 248.645 77.7808ZM15.9372 296.347C24.8942 311.086 31.4803 314.346 49.5336 314.124C36.051 313.064 25.0078 308.81 18.9362 297.64C17.7478 298.149 17.5256 296.407 15.9644 296.333L15.9372 296.347ZM335.354 417.39C328.646 412.001 320.199 408.577 310.898 407.475C311.582 407.696 312.164 408.087 312.586 408.607C313.008 409.128 313.256 409.76 313.305 410.442C321.13 411.787 328.565 414.133 335.403 417.416L335.354 417.39ZM8.97365 301.728C9.78183 301.931 9.33294 300.207 10.6019 300.733C12.1836 302.913 14.2712 304.724 16.7449 306.061C13.0032 301.872 10.2012 297.085 7.2306 292.359C6.60015 292.946 7.08423 293.722 5.87559 294.013C5.10625 294.21 5.20029 292.225 3.46499 293.085C5.36831 296.026 7.18 298.861 9.01007 301.731L8.97365 301.728ZM404.201 70.1444C402.726 68.1854 401.49 66.0028 399.705 64.3133C396.431 61.1962 393.775 57.2393 387.975 57.0884C386.709 57.0263 385.563 56.5676 385.343 58.7086C387.081 58.6883 388.847 58.4909 390.317 59.1157L390.229 60.2926C397.037 61.6107 399.282 67.1234 404.238 70.1471L404.201 70.1444ZM140.073 224.338C138.736 219.086 133.399 213.268 128.938 211.826C127.589 210.332 126.335 208.934 125.081 207.536C127.565 212.449 131.27 216.487 134.857 221.04C134.837 219.367 133.43 218.516 134.025 216.685C135.772 218.253 136.848 220.358 137.099 222.7C139.705 221.293 138.595 224.027 140.109 224.341L140.073 224.338ZM328.939 153.202C327.411 147.893 325.281 142.81 322.583 138.028C321.526 141.191 323.612 142.263 323.545 144.38C322.63 143.126 321.869 142.093 320.785 140.605C321.171 146.779 326.255 149.224 328.976 153.205L328.939 153.202ZM327.955 137.853C330.19 144.279 333.425 150.238 336.053 156.484C333.886 150.021 333.434 142.79 327.955 137.853ZM212.591 90.1427C211.717 84.6584 213.39 78.6401 210.404 73.6711C211.595 72.3482 212.469 70.9881 211.389 69.5563C210.534 69.8061 210.869 70.7937 209.99 70.7837C209.318 70.0498 209.79 68.6751 207.859 67.9417C209.545 75.6655 211.617 82.7696 212.609 90.1261L212.591 90.1427ZM64.4906 268.145C58.7655 265.923 52.5769 265.175 45.6305 264.662C55.3511 268.781 56.8895 269.074 64.5079 268.128L64.4906 268.145ZM245.425 531.874C247.876 525.544 248.87 518.958 252.334 512.803C248.288 518.834 243.717 524.797 245.462 531.847L245.425 531.874ZM416.44 552.442L417.306 551.935C413.722 543.719 408.221 536.564 403.813 528.802L416.44 552.442ZM142.069 207.972C143.936 216.641 145.447 225.462 151.197 232.477C147.083 224.758 145.409 216.009 142.117 207.947L142.069 207.972ZM325.701 415.214C319.522 413.649 313.771 410.888 306.669 411.868C313.036 412.786 318.994 415.002 325.701 415.214ZM325.586 137.856L324.365 138.368C327.698 145.699 331.029 153.027 334.358 160.35L335.004 160.005L325.586 137.856ZM230.909 68.1675C234.829 75.0153 234.122 83.3012 236.617 90.5926C235.945 82.7038 235.352 74.8168 230.887 68.1424L230.909 68.1675ZM332.523 139.578C335.095 146.326 337.622 153.054 339.675 159.991C338.327 152.736 336.474 145.715 332.5 139.552L332.523 139.578ZM253.46 508.805L254.121 509.338C258.835 505.328 262.982 500.798 266.435 495.886L253.46 508.805ZM20.4636 306.474C16.5209 301.795 11.8154 297.618 9.76119 291.694C11.1467 298.02 14.9233 302.847 20.4414 306.449L20.4636 306.474ZM172.6 107.067C175.62 112.099 176.293 118.385 180.069 123.161C177.624 117.733 176.024 111.987 172.575 107.036L172.6 107.067ZM75.8783 317.36C81.517 316.113 86.0358 313.145 89.9065 309.128C85.4434 312.265 80.6193 314.776 75.8531 317.329L75.8783 317.36ZM255.589 552.163C259.501 548.796 264.927 546.857 267.424 542.068C263.721 545.663 259.01 548.239 255.567 552.138L255.589 552.163ZM129.578 205.511C130.988 209.786 134.141 212.857 136.832 216.241C135.505 211.907 132.268 208.844 129.556 205.486L129.578 205.511ZM104.85 77.3625C106.686 75.8874 109.214 75.5628 110.656 73.8254C111.866 73.504 112.116 74.9212 113.504 74.3937C112.64 73.593 111.871 72.874 111.096 72.1434C108.142 72.9827 106.253 74.7821 104.862 77.3192L104.85 77.3625ZM199.499 224.153L189.037 217.189C191.506 220.633 195.201 222.721 199.511 224.11L199.499 224.153ZM434.496 119.59C433.454 115.519 432.787 111.332 432.503 107.068C431.362 111.709 432.474 115.789 434.487 119.558L434.496 119.59ZM104.8 230.878C104.735 228.454 104.111 226.14 102.968 224.081C101.825 222.023 100.187 220.265 98.1589 218.919C101.192 222.896 103.576 226.555 104.792 230.845L104.8 230.878ZM322.13 101.246C321.052 97.5912 320.549 93.5552 316.242 91.6471C314.976 94.4349 318.161 93.0142 318.325 94.1229L322.13 101.246ZM160.392 86.7179C159.796 90.5139 161.496 93.4013 163.659 96.1078C162.578 92.9389 161.496 89.7932 160.411 86.6709L160.392 86.7179ZM342.338 113.866C346.156 112.632 349.284 112.135 351.924 108.746C348.324 110.241 345.162 110.689 342.357 113.819L342.338 113.866ZM76.7454 276.566L76.6329 276.781C72.4994 275.755 68.3662 274.724 64.2331 273.687L64.1839 273.824L76.7454 276.566ZM124.354 198.71C123.232 194.285 121.077 190.25 118.023 186.858L124.354 198.71ZM419.034 130.736C417.381 134.336 416.953 138.164 417.811 141.675C417.467 138.034 419.445 134.371 419.091 130.728L419.034 130.736ZM120.81 180.844C123.484 183.58 126.158 186.316 128.832 189.052C127.062 185.655 124.325 182.832 120.866 180.835L120.81 180.844ZM407.657 177.868L404.094 188.24C406.498 184.933 408.105 181.49 407.714 177.86L407.657 177.868ZM230.423 63.8045C230.25 59.8949 228.698 56.4337 226.649 53.1866C227.904 56.7252 229.162 60.2645 230.423 63.8045ZM438.72 106.199C438.663 103.408 437.543 100.854 438.13 97.9412C436.241 101.084 436.844 103.767 438.72 106.199ZM127.858 263.027L127.486 263.181L133.074 273.643L133.428 273.454L127.858 263.027ZM151.209 40.6966C153.205 42.7756 155.191 44.8556 157.165 46.9366C155.45 44.5598 154.553 41.5388 151.175 40.7148L151.209 40.6966ZM397.708 130.004C397.19 127.725 397.398 125.037 394.646 124.026C395.231 126.284 396.873 127.902 397.674 130.022L397.708 130.004ZM190.016 384.237L189.668 384.961L198.907 386.672L199.178 385.936L190.016 384.237ZM334 480.256C332.86 479.336 331.454 478.71 329.899 478.431C328.345 478.152 326.687 478.227 325.062 478.651L334 480.256ZM241.636 136.527C244.776 135.677 244.366 132.979 245.838 131.462C244.101 132.811 241.873 133.861 241.636 136.527ZM260.914 512.2C262.997 510.29 265.489 508.7 267.539 505.368C264.183 507.663 262.234 509.663 260.914 512.2ZM69.7668 287.796C66.2572 284.369 66.2572 284.369 63.9583 284.6C65.619 285.81 66.642 287.774 69.7668 287.796ZM364.174 127.226L363.054 119.333C362.489 122.205 362.626 124.9 364.174 127.226ZM161.666 85.1073L161.924 84.9692L157.158 76.0476L156.9 76.1857L161.666 85.1073ZM196.895 113.162C197.033 114.301 197.484 115.353 198.209 116.224C198.933 117.095 199.909 117.758 201.05 118.157C199.662 116.491 198.28 114.822 196.895 113.162ZM313.756 109.929C313.833 107.549 313.1 105.308 311.657 103.511C311.735 105.851 312.456 108.056 313.756 109.929Z" fill="#B68C8C"/>
</svg>
