<svg width="190" height="24" viewBox="0 0 190 24" fill="none" xmlns="http://www.w3.org/2000/svg">
<path d="M163.783 6.99968C163.783 7.00173 163.784 7.00372 163.784 7.00574C163.785 7.01226 163.786 7.01869 163.788 7.02503C163.788 7.02705 163.789 7.02904 163.789 7.03103C163.791 7.03847 163.794 7.04575 163.796 7.05279C163.797 7.05343 163.797 7.05411 163.797 7.05472C163.8 7.06274 163.804 7.07052 163.808 7.07802C163.808 7.07841 163.809 7.07884 163.809 7.07924L169.149 16.6406C169.15 16.6423 169.151 16.6437 169.152 16.6454C169.154 16.6491 169.156 16.6528 169.159 16.6564C169.161 16.659 169.163 16.6615 169.164 16.6641C169.166 16.6668 169.169 16.6696 169.171 16.6722C169.173 16.6751 169.176 16.6778 169.178 16.6805C169.18 16.6826 169.182 16.6848 169.184 16.6868C169.187 16.6895 169.19 16.6921 169.192 16.6947C169.195 16.6965 169.197 16.6984 169.199 16.7002C169.202 16.7025 169.205 16.7047 169.208 16.7069C169.21 16.7087 169.213 16.7105 169.215 16.7122C169.218 16.714 169.221 16.7157 169.223 16.7173C169.226 16.7191 169.23 16.7209 169.233 16.7225C169.235 16.7238 169.238 16.725 169.24 16.7262C169.244 16.7279 169.247 16.7295 169.251 16.7309C169.253 16.7319 169.256 16.7327 169.258 16.7335C169.261 16.7349 169.265 16.7362 169.269 16.7373C169.272 16.738 169.274 16.7387 169.277 16.7393C169.281 16.7402 169.284 16.7411 169.288 16.7418C169.291 16.7424 169.294 16.7428 169.297 16.7432C169.301 16.7437 169.304 16.7441 169.307 16.7444C169.311 16.7447 169.315 16.7448 169.319 16.7449C169.321 16.7449 169.323 16.7452 169.325 16.7452L170.848 16.7334C170.849 16.7334 170.85 16.7332 170.851 16.7332C170.858 16.733 170.865 16.7325 170.872 16.7316C170.874 16.7313 170.875 16.7312 170.877 16.7309C170.893 16.7283 170.909 16.7238 170.924 16.7174C170.925 16.7167 170.927 16.7159 170.929 16.7151C170.935 16.7123 170.941 16.7092 170.946 16.7058C170.948 16.705 170.949 16.7043 170.95 16.7036C170.964 16.695 170.977 16.6846 170.989 16.6725C170.99 16.6712 170.991 16.6698 170.992 16.6684C170.997 16.6636 171.001 16.6586 171.005 16.6533C171.006 16.6516 171.008 16.6499 171.009 16.6481C171.013 16.6415 171.018 16.6346 171.022 16.6272C171.022 16.6271 171.022 16.6269 171.022 16.6268C171.022 16.6267 171.022 16.6267 171.022 16.6267L176.267 6.98352C176.302 6.91813 176.302 6.83789 176.266 6.77303L175.494 5.40279C175.493 5.40233 175.493 5.40193 175.493 5.40151C175.489 5.39398 175.484 5.38666 175.479 5.37968C175.479 5.37965 175.479 5.37965 175.479 5.37965C175.474 5.37304 175.468 5.36682 175.462 5.36085C175.461 5.3596 175.46 5.3584 175.459 5.35718C175.454 5.3524 175.449 5.34784 175.444 5.3435C175.442 5.34246 175.441 5.34135 175.44 5.34037C175.433 5.33532 175.427 5.33055 175.419 5.32626C175.412 5.32204 175.405 5.31849 175.397 5.31527C175.397 5.31503 175.396 5.31469 175.396 5.31445C175.371 5.30373 175.344 5.29865 175.318 5.29883C175.318 5.29883 175.318 5.29892 175.317 5.29892L164.733 5.38093C164.661 5.38149 164.595 5.42214 164.559 5.48753L163.808 6.86949C163.807 6.87001 163.807 6.87056 163.807 6.87108C163.803 6.87858 163.799 6.88632 163.796 6.89437C163.796 6.89471 163.796 6.89511 163.796 6.89548C163.793 6.90279 163.79 6.91035 163.789 6.91804C163.788 6.92012 163.788 6.92217 163.787 6.92425C163.786 6.93047 163.785 6.93674 163.784 6.94314C163.783 6.94534 163.783 6.94752 163.783 6.94969C163.782 6.95753 163.781 6.96546 163.781 6.97351C163.782 6.9739 163.781 6.9743 163.781 6.9747C163.781 6.97476 163.781 6.97485 163.781 6.97495C163.782 6.98333 163.782 6.99154 163.783 6.99968ZM175.323 5.93036L175.859 6.88142L170.844 16.102L166.584 8.5399L167.641 8.5317L170.653 13.8773C170.653 13.8779 170.654 13.8786 170.654 13.8792C170.656 13.883 170.658 13.8867 170.661 13.8904C170.662 13.8925 170.664 13.8947 170.665 13.8967C170.668 13.9 170.67 13.903 170.672 13.9062C170.674 13.9085 170.676 13.9109 170.678 13.9131C170.68 13.9155 170.683 13.9178 170.685 13.9202C170.688 13.9228 170.69 13.9255 170.693 13.9279C170.694 13.9297 170.697 13.9313 170.699 13.933C170.702 13.9358 170.705 13.9386 170.708 13.9412C170.71 13.9425 170.712 13.9438 170.714 13.9451C170.718 13.9477 170.722 13.9503 170.725 13.9526C170.726 13.9529 170.727 13.9534 170.727 13.9537C170.729 13.9547 170.73 13.9555 170.732 13.9563C170.736 13.9583 170.739 13.9603 170.743 13.962C170.746 13.9634 170.749 13.9646 170.752 13.9658C170.755 13.9671 170.758 13.9683 170.761 13.9695C170.764 13.9707 170.768 13.9718 170.771 13.9729C170.774 13.9737 170.776 13.9745 170.779 13.9751C170.783 13.9761 170.787 13.9769 170.791 13.9776C170.793 13.9781 170.796 13.9786 170.798 13.979C170.802 13.9795 170.806 13.9799 170.81 13.9803C170.812 13.9806 170.815 13.9807 170.818 13.9809C170.822 13.981 170.825 13.9811 170.828 13.981C170.832 13.981 170.835 13.9809 170.838 13.9807C170.841 13.9806 170.844 13.9803 170.848 13.9799C170.851 13.9796 170.854 13.9791 170.858 13.9786C170.861 13.9781 170.864 13.9775 170.866 13.9769C170.87 13.9762 170.873 13.9754 170.877 13.9745C170.88 13.9737 170.883 13.9728 170.886 13.9718C170.889 13.9708 170.892 13.9698 170.895 13.9685C170.899 13.9673 170.902 13.9659 170.905 13.9645C170.908 13.9633 170.91 13.9621 170.913 13.9608C170.917 13.9589 170.921 13.9568 170.924 13.9546C170.926 13.9538 170.927 13.9531 170.929 13.9522C170.929 13.9519 170.93 13.9514 170.931 13.9511C170.935 13.9486 170.938 13.9459 170.942 13.9432C170.944 13.9419 170.946 13.9407 170.947 13.9394C170.951 13.9367 170.954 13.9338 170.957 13.9308C170.959 13.9292 170.961 13.9276 170.963 13.9259C170.966 13.9233 170.968 13.9206 170.971 13.9178C170.973 13.9155 170.975 13.9132 170.977 13.9108C170.979 13.9085 170.981 13.9061 170.983 13.9037C170.985 13.9006 170.988 13.8975 170.99 13.8943C170.991 13.8922 170.993 13.8899 170.994 13.8878C170.996 13.8841 170.999 13.8804 171.001 13.8765C171.001 13.8759 171.002 13.8753 171.002 13.8746L175.323 5.93036ZM168.108 8.52806L171.945 8.49833L170.052 11.9795L168.108 8.52806ZM164.853 5.80097L174.972 5.72257L170.824 13.3497L170.288 12.3987L173.22 7.00712C173.238 6.97498 173.247 6.93852 173.247 6.9016C173.246 6.7853 173.155 6.69178 173.043 6.69267L171.708 6.70302C171.596 6.70387 171.507 6.79877 171.507 6.91507C171.508 7.03133 171.599 7.12485 171.711 7.124L172.697 7.11634L172.175 8.07555L167.755 8.1098C167.755 8.1098 167.755 8.10977 167.755 8.10977L167.754 8.1098L166.348 8.1207L165.812 7.16967L170.904 7.13024C171.015 7.12938 171.105 7.03446 171.104 6.91819C171.103 6.80192 171.012 6.7084 170.9 6.70926L165.46 6.75141L165.46 6.75138C165.459 6.75138 165.459 6.75141 165.459 6.75141L164.331 6.76014L164.853 5.80097ZM165.346 7.17328L170.496 16.3151L169.439 16.3233L164.333 7.18115L165.346 7.17328Z" fill="#B68C8C"/>
<path d="M104.27 5.47685H106.497V16.691H104.27V5.47685ZM109.332 5.47685H111.545L115.511 9.56646L119.477 5.47685H121.69V16.691H119.477V8.62654L115.511 12.5512L111.545 8.62654V16.691H109.332V5.47685ZM124.797 5.47685H130.55C131.388 5.47685 132.114 5.57012 132.729 5.75664C133.343 5.94319 133.853 6.21344 134.258 6.56741C134.663 6.91657 134.963 7.34468 135.158 7.85168C135.359 8.35868 135.459 8.93027 135.459 9.56646C135.459 10.1643 135.361 10.7168 135.166 11.2238C134.97 11.7308 134.67 12.1709 134.265 12.544C133.864 12.9123 133.357 13.2017 132.743 13.4121C132.128 13.6178 131.402 13.7206 130.564 13.7206L127.01 13.7134V16.691H124.797V5.47685ZM130.606 11.7476C131.025 11.7476 131.39 11.6973 131.702 11.5969C132.019 11.4917 132.282 11.3458 132.491 11.1592C132.705 10.9679 132.864 10.7383 132.966 10.4705C133.073 10.1978 133.127 9.89649 133.127 9.56646C133.127 8.90159 132.915 8.38501 132.491 8.01671C132.072 7.64361 131.444 7.45706 130.606 7.45706H127.01V11.7476H130.606ZM137.882 5.47685H143.432C144.27 5.47685 144.996 5.56773 145.611 5.74948C146.225 5.92645 146.735 6.18475 147.14 6.52437C147.545 6.86395 147.845 7.2777 148.04 7.7656C148.241 8.25347 148.341 8.80593 148.341 9.42295C148.341 9.83909 148.292 10.2361 148.194 10.6139C148.096 10.987 147.945 11.3314 147.74 11.6471C147.54 11.9628 147.286 12.245 146.979 12.4938C146.672 12.7377 146.311 12.941 145.897 13.1036L148.271 16.691H145.562L143.509 13.5054H143.446L140.095 13.4982V16.691H137.882V5.47685ZM143.488 11.5323C143.907 11.5323 144.273 11.4821 144.584 11.3816C144.901 11.2812 145.164 11.1401 145.373 10.9583C145.587 10.7766 145.746 10.5565 145.848 10.2983C145.955 10.0352 146.009 9.74343 146.009 9.42295C146.009 8.79635 145.799 8.31325 145.38 7.97364C144.961 7.62925 144.331 7.45706 143.488 7.45706H140.095V11.5323H143.488ZM150.324 11.0516C150.324 10.205 150.475 9.43011 150.778 8.72701C151.08 8.02388 151.504 7.42121 152.048 6.91896C152.597 6.41196 153.254 6.01972 154.017 5.74231C154.785 5.46488 155.635 5.32617 156.566 5.32617C157.492 5.32617 158.339 5.46488 159.107 5.74231C159.875 6.01972 160.532 6.41196 161.076 6.91896C161.625 7.42121 162.051 8.02388 162.354 8.72701C162.657 9.43011 162.808 10.205 162.808 11.0516C162.808 11.903 162.657 12.6851 162.354 13.3978C162.051 14.1057 161.625 14.7155 161.076 15.2273C160.532 15.7391 159.875 16.1385 159.107 16.4255C158.339 16.7077 157.492 16.8488 156.566 16.8488C155.635 16.8488 154.785 16.7077 154.017 16.4255C153.254 16.1385 152.597 15.7391 152.048 15.2273C151.504 14.7155 151.08 14.1057 150.778 13.3978C150.475 12.6851 150.324 11.903 150.324 11.0516ZM152.537 11.0516C152.537 11.6304 152.637 12.1518 152.837 12.6157C153.042 13.0797 153.324 13.4767 153.682 13.8067C154.045 14.132 154.471 14.3831 154.96 14.5601C155.453 14.737 155.989 14.8255 156.566 14.8255C157.143 14.8255 157.676 14.737 158.165 14.5601C158.658 14.3831 159.084 14.132 159.442 13.8067C159.801 13.4767 160.082 13.0797 160.287 12.6157C160.492 12.1518 160.594 11.6304 160.594 11.0516C160.594 10.4729 160.492 9.95389 160.287 9.4947C160.082 9.03552 159.801 8.64809 159.442 8.33239C159.084 8.01191 158.658 7.76799 158.165 7.60057C157.676 7.43315 157.143 7.34946 156.566 7.34946C155.989 7.34946 155.453 7.43315 154.96 7.60057C154.471 7.76799 154.045 8.01191 153.682 8.33239C153.324 8.64809 153.042 9.03552 152.837 9.4947C152.637 9.95389 152.537 10.4729 152.537 11.0516Z" fill="#B68C8C"/>
<path d="M178.045 13.3573C178.441 13.5869 178.841 13.795 179.246 13.9815C179.656 14.1633 180.079 14.3187 180.517 14.4479C180.955 14.5722 181.413 14.6679 181.892 14.7349C182.376 14.8018 182.891 14.8353 183.436 14.8353C184.092 14.8353 184.65 14.7923 185.111 14.7062C185.572 14.6153 185.947 14.4933 186.235 14.3403C186.529 14.1824 186.74 13.9959 186.871 13.7806C187.006 13.5654 187.073 13.331 187.073 13.0775C187.073 12.6709 186.908 12.3505 186.578 12.1161C186.247 11.8769 185.737 11.7573 185.048 11.7573C184.746 11.7573 184.427 11.7789 184.092 11.8219C183.757 11.8602 183.417 11.9032 183.072 11.9511C182.732 11.9989 182.395 12.0443 182.06 12.0874C181.729 12.1256 181.418 12.1448 181.124 12.1448C180.636 12.1448 180.165 12.0802 179.714 11.9511C179.267 11.8219 178.869 11.6282 178.52 11.3699C178.176 11.1116 177.901 10.7887 177.696 10.4013C177.491 10.0139 177.389 9.56187 177.389 9.04528C177.389 8.73916 177.429 8.43543 177.508 8.13411C177.592 7.83276 177.722 7.54577 177.899 7.27314C178.08 6.9957 178.313 6.73981 178.597 6.50545C178.881 6.26627 179.223 6.06059 179.623 5.8884C180.028 5.7162 180.494 5.58227 181.02 5.48661C181.55 5.38617 182.153 5.33594 182.828 5.33594C183.317 5.33594 183.808 5.36465 184.301 5.42205C184.795 5.47467 185.274 5.5512 185.74 5.65164C186.21 5.75208 186.661 5.87404 187.094 6.01755C187.527 6.15625 187.93 6.3117 188.302 6.4839L187.332 8.32063C187.024 8.18193 186.694 8.05516 186.34 7.94037C185.986 7.82079 185.616 7.71797 185.23 7.63186C184.843 7.54577 184.443 7.47879 184.029 7.43098C183.619 7.37836 183.2 7.35206 182.772 7.35206C182.162 7.35206 181.66 7.39749 181.264 7.48838C180.873 7.57926 180.561 7.69645 180.328 7.83993C180.096 7.97863 179.933 8.1365 179.84 8.31347C179.751 8.48566 179.707 8.65786 179.707 8.83005C179.707 9.16486 179.854 9.43991 180.147 9.65514C180.44 9.8656 180.887 9.97085 181.488 9.97085C181.729 9.97085 182.006 9.9541 182.318 9.92061C182.635 9.88235 182.965 9.84169 183.31 9.79865C183.659 9.75558 184.013 9.71732 184.371 9.68386C184.734 9.64559 185.086 9.62646 185.426 9.62646C186.068 9.62646 186.636 9.70057 187.129 9.84886C187.627 9.99714 188.044 10.21 188.379 10.4874C188.714 10.7601 188.968 11.0925 189.14 11.4847C189.312 11.8721 189.398 12.3074 189.398 12.7905C189.398 13.4362 189.252 14.0126 188.958 14.5196C188.67 15.0219 188.256 15.4476 187.716 15.7967C187.18 16.1411 186.533 16.4042 185.774 16.5859C185.016 16.7629 184.171 16.8514 183.24 16.8514C182.626 16.8514 182.025 16.8108 181.439 16.7294C180.852 16.6529 180.289 16.5429 179.749 16.3994C179.214 16.2511 178.702 16.0765 178.213 15.8756C177.729 15.67 177.28 15.4452 176.865 15.2012L178.045 13.3573Z" fill="#B68C8C"/>
<path d="M5.87419 17.16C4.87152 17.16 4.01819 16.9947 3.31419 16.664C2.62085 16.3227 2.08219 15.832 1.69819 15.192C1.31419 14.5413 1.10085 13.752 1.05819 12.824C1.04752 12.3867 1.04219 11.9173 1.04219 11.416C1.04219 10.9147 1.04752 10.4347 1.05819 9.976C1.10085 9.05867 1.31419 8.28 1.69819 7.64C2.09285 6.98933 2.64219 6.49333 3.34619 6.152C4.05019 5.81067 4.89285 5.64 5.87419 5.64C6.58885 5.64 7.23952 5.73067 7.82619 5.912C8.41285 6.09333 8.91952 6.35467 9.34619 6.696C9.77285 7.03733 10.1035 7.43733 10.3382 7.896C10.5729 8.35467 10.7009 8.86667 10.7222 9.432C10.7222 9.528 10.6849 9.608 10.6102 9.672C10.5462 9.736 10.4662 9.768 10.3702 9.768H8.54619C8.41819 9.768 8.31685 9.736 8.24219 9.672C8.16752 9.608 8.10885 9.50133 8.06619 9.352C7.90619 8.72267 7.63952 8.29067 7.26619 8.056C6.89285 7.82133 6.42885 7.704 5.87419 7.704C5.21285 7.704 4.69019 7.88533 4.30619 8.248C3.92219 8.61067 3.71419 9.21333 3.68219 10.056C3.65019 10.9307 3.65019 11.8267 3.68219 12.744C3.71419 13.5867 3.92219 14.1893 4.30619 14.552C4.69019 14.9147 5.21285 15.096 5.87419 15.096C6.42885 15.096 6.89285 14.9787 7.26619 14.744C7.65019 14.4987 7.91685 14.0667 8.06619 13.448C8.10885 13.288 8.16752 13.1813 8.24219 13.128C8.31685 13.064 8.41819 13.032 8.54619 13.032H10.3702C10.4662 13.032 10.5462 13.064 10.6102 13.128C10.6849 13.192 10.7222 13.272 10.7222 13.368C10.7009 13.9333 10.5729 14.4453 10.3382 14.904C10.1035 15.3627 9.77285 15.7627 9.34619 16.104C8.91952 16.4453 8.41285 16.7067 7.82619 16.888C7.23952 17.0693 6.58885 17.16 5.87419 17.16ZM12.9199 17C12.8026 17 12.7066 16.9627 12.6319 16.888C12.5573 16.8133 12.5199 16.7173 12.5199 16.6V6.2C12.5199 6.08267 12.5573 5.98667 12.6319 5.912C12.7066 5.83733 12.8026 5.8 12.9199 5.8H17.1599C18.4933 5.8 19.5439 6.10933 20.3119 6.728C21.0799 7.336 21.4639 8.216 21.4639 9.368C21.4639 10.1467 21.2773 10.7973 20.9039 11.32C20.5306 11.8427 20.0293 12.232 19.3999 12.488L21.6559 16.488C21.6879 16.552 21.7039 16.6107 21.7039 16.664C21.7039 16.7493 21.6719 16.8293 21.6079 16.904C21.5439 16.968 21.4639 17 21.3679 17H19.5919C19.3999 17 19.2559 16.952 19.1599 16.856C19.0639 16.7493 18.9946 16.6533 18.9519 16.568L16.9999 12.904H15.0639V16.6C15.0639 16.7173 15.0266 16.8133 14.9519 16.888C14.8773 16.9627 14.7813 17 14.6639 17H12.9199ZM15.0639 10.872H17.1119C17.6986 10.872 18.1306 10.7387 18.4079 10.472C18.6959 10.2053 18.8399 9.832 18.8399 9.352C18.8399 8.872 18.7013 8.49333 18.4239 8.216C18.1466 7.93867 17.7093 7.8 17.1119 7.8H15.0639V10.872ZM23.8262 17C23.7089 17 23.6129 16.9627 23.5382 16.888C23.4635 16.8133 23.4262 16.7173 23.4262 16.6V6.2C23.4262 6.08267 23.4635 5.98667 23.5382 5.912C23.6129 5.83733 23.7089 5.8 23.8262 5.8H31.0742C31.1915 5.8 31.2875 5.83733 31.3622 5.912C31.4369 5.98667 31.4742 6.08267 31.4742 6.2V7.48C31.4742 7.58667 31.4369 7.67733 31.3622 7.752C31.2875 7.82667 31.1915 7.864 31.0742 7.864H25.8902V10.376H30.7222C30.8395 10.376 30.9355 10.4133 31.0102 10.488C31.0849 10.5627 31.1222 10.6587 31.1222 10.776V11.96C31.1222 12.0667 31.0849 12.1573 31.0102 12.232C30.9355 12.3067 30.8395 12.344 30.7222 12.344H25.8902V14.936H31.2022C31.3195 14.936 31.4155 14.9733 31.4902 15.048C31.5649 15.1227 31.6022 15.2187 31.6022 15.336V16.6C31.6022 16.7173 31.5649 16.8133 31.4902 16.888C31.4155 16.9627 31.3195 17 31.2022 17H23.8262ZM32.8483 17C32.7523 17 32.6723 16.968 32.6083 16.904C32.5443 16.8293 32.5123 16.7493 32.5123 16.664C32.5123 16.6107 32.5176 16.5627 32.5283 16.52L36.3363 6.232C36.3683 6.11467 36.4323 6.01333 36.5283 5.928C36.6243 5.84267 36.7576 5.8 36.9283 5.8H38.9763C39.147 5.8 39.2803 5.84267 39.3763 5.928C39.4723 6.01333 39.5363 6.11467 39.5683 6.232L43.3763 16.52C43.387 16.5627 43.3923 16.6107 43.3923 16.664C43.3923 16.7493 43.3603 16.8293 43.2963 16.904C43.2323 16.968 43.1523 17 43.0563 17H41.3923C41.2323 17 41.115 16.9627 41.0403 16.888C40.9656 16.8133 40.9176 16.744 40.8963 16.68L40.2083 14.888H35.6963L35.0083 16.68C34.987 16.744 34.939 16.8133 34.8643 16.888C34.7896 16.9627 34.6723 17 34.5123 17H32.8483ZM36.2883 12.824H39.6003L37.9523 8.216L36.2883 12.824ZM46.4777 17C46.3604 17 46.2644 16.9627 46.1897 16.888C46.115 16.8133 46.0777 16.7173 46.0777 16.6V8.024H43.1657C43.059 8.024 42.9684 7.98667 42.8937 7.912C42.819 7.83733 42.7817 7.74667 42.7817 7.64V6.2C42.7817 6.08267 42.819 5.98667 42.8937 5.912C42.9684 5.83733 43.059 5.8 43.1657 5.8H51.5497C51.667 5.8 51.763 5.83733 51.8377 5.912C51.9124 5.98667 51.9497 6.08267 51.9497 6.2V7.64C51.9497 7.74667 51.9124 7.83733 51.8377 7.912C51.763 7.98667 51.667 8.024 51.5497 8.024H48.6537V16.6C48.6537 16.7173 48.6164 16.8133 48.5417 16.888C48.467 16.9627 48.371 17 48.2537 17H46.4777ZM53.8887 17C53.7714 17 53.6754 16.9627 53.6007 16.888C53.526 16.8133 53.4887 16.7173 53.4887 16.6V6.2C53.4887 6.08267 53.526 5.98667 53.6007 5.912C53.6754 5.83733 53.7714 5.8 53.8887 5.8H61.1367C61.254 5.8 61.35 5.83733 61.4247 5.912C61.4994 5.98667 61.5367 6.08267 61.5367 6.2V7.48C61.5367 7.58667 61.4994 7.67733 61.4247 7.752C61.35 7.82667 61.254 7.864 61.1367 7.864H55.9527V10.376H60.7847C60.902 10.376 60.998 10.4133 61.0727 10.488C61.1474 10.5627 61.1847 10.6587 61.1847 10.776V11.96C61.1847 12.0667 61.1474 12.1573 61.0727 12.232C60.998 12.3067 60.902 12.344 60.7847 12.344H55.9527V14.936H61.2647C61.382 14.936 61.478 14.9733 61.5527 15.048C61.6274 15.1227 61.6647 15.2187 61.6647 15.336V16.6C61.6647 16.7173 61.6274 16.8133 61.5527 16.888C61.478 16.9627 61.382 17 61.2647 17H53.8887ZM63.9668 17C63.8495 17 63.7535 16.9627 63.6788 16.888C63.6041 16.8133 63.5668 16.7173 63.5668 16.6V6.2C63.5668 6.08267 63.6041 5.98667 63.6788 5.912C63.7535 5.83733 63.8495 5.8 63.9668 5.8H67.9828C69.0495 5.8 69.9401 5.97067 70.6548 6.312C71.3695 6.64267 71.9135 7.13333 72.2868 7.784C72.6708 8.424 72.8735 9.21867 72.8948 10.168C72.9055 10.6373 72.9108 11.048 72.9108 11.4C72.9108 11.752 72.9055 12.1573 72.8948 12.616C72.8628 13.608 72.6655 14.4293 72.3028 15.08C71.9401 15.7307 71.4068 16.216 70.7028 16.536C69.9988 16.8453 69.1188 17 68.0628 17H63.9668ZM66.1108 14.936H67.9828C68.5161 14.936 68.9535 14.856 69.2948 14.696C69.6361 14.536 69.8868 14.2853 70.0468 13.944C70.2175 13.592 70.3081 13.1387 70.3188 12.584C70.3295 12.2747 70.3348 11.9973 70.3348 11.752C70.3455 11.5067 70.3455 11.2613 70.3348 11.016C70.3348 10.7707 70.3295 10.4987 70.3188 10.2C70.2975 9.4 70.0895 8.81333 69.6948 8.44C69.3108 8.056 68.7135 7.864 67.9028 7.864H66.1108V14.936ZM78.8418 17C78.7245 17 78.6285 16.9627 78.5538 16.888C78.4791 16.8133 78.4418 16.7173 78.4418 16.6V6.2C78.4418 6.08267 78.4791 5.98667 78.5538 5.912C78.6285 5.83733 78.7245 5.8 78.8418 5.8H83.5938C84.4791 5.8 85.2045 5.928 85.7698 6.184C86.3351 6.44 86.7511 6.80267 87.0178 7.272C87.2951 7.74133 87.4338 8.29067 87.4338 8.92C87.4338 9.31467 87.3591 9.66133 87.2098 9.96C87.0711 10.2587 86.8951 10.504 86.6818 10.696C86.4791 10.888 86.2818 11.032 86.0898 11.128C86.5058 11.32 86.8685 11.64 87.1778 12.088C87.4978 12.5253 87.6578 13.048 87.6578 13.656C87.6578 14.328 87.5085 14.9147 87.2098 15.416C86.9111 15.9173 86.4685 16.3067 85.8818 16.584C85.2951 16.8613 84.5805 17 83.7378 17H78.8418ZM80.9858 15.128H83.4338C83.9565 15.128 84.3511 14.984 84.6178 14.696C84.8845 14.3973 85.0178 14.0453 85.0178 13.64C85.0178 13.224 84.8791 12.8773 84.6018 12.6C84.3351 12.312 83.9458 12.168 83.4338 12.168H80.9858V15.128ZM80.9858 10.328H83.2898C83.7911 10.328 84.1645 10.2053 84.4098 9.96C84.6658 9.704 84.7938 9.37867 84.7938 8.984C84.7938 8.58933 84.6658 8.27467 84.4098 8.04C84.1645 7.79467 83.7911 7.672 83.2898 7.672H80.9858V10.328ZM92.5038 17C92.3865 17 92.2905 16.9627 92.2158 16.888C92.1411 16.8133 92.1038 16.7173 92.1038 16.6V13.08L88.3598 6.312C88.3491 6.28 88.3385 6.25333 88.3278 6.232C88.3171 6.2 88.3118 6.168 88.3118 6.136C88.3118 6.05067 88.3438 5.976 88.4078 5.912C88.4825 5.83733 88.5625 5.8 88.6478 5.8H90.3438C90.4931 5.8 90.6105 5.83733 90.6958 5.912C90.7811 5.98667 90.8398 6.056 90.8718 6.12L93.3838 10.52L95.8958 6.12C95.9278 6.056 95.9865 5.98667 96.0718 5.912C96.1571 5.83733 96.2745 5.8 96.4238 5.8H98.1198C98.2051 5.8 98.2798 5.83733 98.3438 5.912C98.4185 5.976 98.4558 6.05067 98.4558 6.136C98.4558 6.168 98.4505 6.2 98.4398 6.232C98.4291 6.25333 98.4185 6.28 98.4078 6.312L94.6638 13.08V16.6C94.6638 16.7173 94.6265 16.8133 94.5518 16.888C94.4771 16.9627 94.3811 17 94.2638 17H92.5038Z" fill="#737373"/>
</svg>
