<svg width="24" height="24" viewBox="0 0 24 24" fill="none" xmlns="http://www.w3.org/2000/svg">
<g clip-path="url(#clip0_188_343)">
<path d="M18.9762 4.44092C18.655 4.44092 18.3936 4.70234 18.3936 5.02357C18.3936 5.34481 18.655 5.60623 18.9762 5.60623C19.2975 5.60623 19.5589 5.34486 19.5589 5.02357C19.5589 4.70229 19.2975 4.44092 18.9762 4.44092Z" fill="#B68C8C"/>
<path d="M11.9999 6.83447C9.15169 6.83447 6.83447 9.15169 6.83447 11.9999C6.83447 14.8481 9.15169 17.1654 11.9999 17.1654C14.8482 17.1654 17.1654 14.8482 17.1654 12C17.1654 9.15174 14.8482 6.83447 11.9999 6.83447Z" fill="#B68C8C"/>
<path d="M17.4208 0H6.57923C2.95144 0 0 2.95144 0 6.57928V17.4208C0 21.0486 2.95144 24 6.57923 24H17.4208C21.0486 24 24 21.0486 24 17.4208V6.57928C24 2.95144 21.0486 0 17.4208 0ZM12 18.5828C8.37023 18.5828 5.4173 15.6298 5.4173 12C5.4173 8.37023 8.37028 5.41734 12 5.41734C15.6297 5.41734 18.5828 8.37028 18.5828 12C18.5828 15.6297 15.6297 18.5828 12 18.5828ZM18.9765 7.02356C17.8737 7.02356 16.9765 6.12637 16.9765 5.02359C16.9765 3.92081 17.8737 3.02358 18.9765 3.02358C20.0792 3.02358 20.9764 3.92077 20.9764 5.02355C20.9764 6.12633 20.0792 7.02356 18.9765 7.02356Z" fill="#B68C8C"/>
</g>
<defs>
<clipPath id="clip0_188_343">
<rect width="24" height="24" fill="white"/>
</clipPath>
</defs>
</svg>
