<svg width="24" height="24" viewBox="0 0 24 24" fill="none" xmlns="http://www.w3.org/2000/svg">
<path d="M23.277 18.565C22.2219 16.3588 20.4233 14.9199 17.8334 14.2724C17.4497 14.1765 17.042 14.2724 16.7302 14.5362L14.5959 16.2868C14.1882 16.6226 13.5887 16.6705 13.1331 16.3827C10.8789 14.9918 9.03233 13.1453 7.64143 10.8911C7.35366 10.4355 7.40162 9.83593 7.73736 9.42825L9.48797 7.29394C9.75176 6.98219 9.84768 6.57451 9.75176 6.19082C9.08029 3.57689 7.64143 1.77831 5.43518 0.72315C5.07547 0.555283 4.66779 0.555283 4.30807 0.747131C3.20495 1.34666 2.1258 2.01812 1.1186 2.76153C0.734906 3.04931 0.543058 3.52893 0.615001 4.00855C1.33443 8.30114 3.66059 12.8096 7.4256 16.5746C11.1906 20.3396 15.699 22.6418 19.9916 23.3852C20.4713 23.4571 20.9509 23.2653 21.2387 22.8816C21.9821 21.8744 22.6535 20.8192 23.2531 19.6921C23.4449 19.3324 23.4449 18.9247 23.277 18.565Z" fill="#B68C8C"/>
</svg>
